<svg width="34" height="34" fill="none" xmlns="http://www.w3.org/2000/svg"><path d="M27.575 32.75h-21.1A.475.475 0 016 32.275V27.75c0-4.413 3.588-8.012 8.012-8.012h6.026c4.412 0 8 3.587 8 8.012v4.525a.45.45 0 01-.463.475zm-20.637-.938H27.1v-4.05c0-3.9-3.175-7.075-7.063-7.075h-6.024c-3.9 0-7.075 3.175-7.075 7.075v4.05zm10.087-13.274a6.78 6.78 0 01-6.775-6.776C10.25 8.025 13.287 5 17.025 5a6.78 6.78 0 016.775 6.775c0 3.737-3.038 6.763-6.775 6.763zm0-12.6a5.844 5.844 0 00-5.837 5.837 5.836 5.836 0 005.837 5.838 5.836 5.836 0 005.838-5.838 5.844 5.844 0 00-5.838-5.838z" fill="#4E4E50"/></svg>