<svg width="34" height="34" fill="none" xmlns="http://www.w3.org/2000/svg"><path d="M30.243 33.428c.359-.359.56-.841.56-1.357l-.1-20.49a1.91 1.91 0 00-1.907-1.895h-3.79v-.034A7.683 7.683 0 0017.604 4a7.682 7.682 0 00-7.402 5.652v.034H5.907A1.905 1.905 0 004 11.592v20.501C4 33.148 4.852 34 5.907 34h22.99a1.913 1.913 0 001.346-.572zm-12.64-28.53a6.774 6.774 0 016.46 4.788h-12.92a6.774 6.774 0 016.46-4.789zM4.854 11.58c0-.583.47-1.054 1.054-1.054h22.89a1.05 1.05 0 011.053 1.043l.09 20.501c0 .28-.112.55-.303.751-.19.202-.46.314-.751.314H5.906a1.053 1.053 0 01-1.054-1.054v-20.5z" fill="#4E4E50"/></svg>