<svg width="128" height="115" fill="none" xmlns="http://www.w3.org/2000/svg"><g clip-path="url(#clip0_219_3270)"><path d="M31.53 1.705l31.528 13.473L94.586 1.705l31.717 30.363-13.404 51.048-49.086 30.363-50.596-30.743L1.323 32.257 31.53 1.705z" fill="#9D0000"/><path d="M64.002 114.997L12.273 83.495.002 31.688 31.152.186 63.058 13.66 94.964.186l33.038 31.502-13.782 52.376-50.218 30.933zm-49.274-33.4l49.274 29.984 47.953-29.604 13.026-49.72L94.397 3.223 63.058 16.507 31.908 3.223 3.21 32.257l11.517 49.34z" fill="#5D5048"/><path d="M62.869 36.432l26.242-10.627 16.047 13.664-8.684 29.224-33.039 21.823S29.453 69.642 29.453 68.883c0-.76-6.985-30.363-6.985-30.363l14.537-12.905 25.864 10.817z" fill="#9D0000"/><path d="M63.624 92.224l-.755-.569C28.321 70.401 28.321 69.832 28.321 68.883c-.19-.949-4.343-18.598-6.986-29.984l-.189-.759 15.859-14.043 26.053 11.006 26.43-10.626 17.558 14.802-9.062 30.553-34.36 22.392zm-32.66-24.1c2.643 1.898 20.767 13.284 32.66 20.685l31.717-21.065 8.307-27.706-14.726-12.525L63.058 37.95 37.571 27.324 24.356 39.089c4.909 21.633 6.23 27.517 6.608 29.035z" fill="#5D5048"/><path d="M31.53 1.705l31.528 13.473L94.586 1.705l31.717 30.363-13.404 51.048-49.086 30.363-50.596-30.743L1.323 32.257 31.53 1.705z" fill="#9D0000"/><path d="M64.002 114.997L12.273 83.495.002 31.688 31.152.186 63.058 13.66 94.964.186l33.038 31.502-13.782 52.376-50.218 30.933zm-49.274-33.4l49.274 29.984 47.953-29.604 13.026-49.72L94.397 3.223 63.058 16.507 31.908 3.223 3.21 32.257l11.517 49.34z" fill="#5D5048"/><path d="M62.87 36.432l26.242-10.627 16.047 13.664-8.684 29.224-33.039 21.823S29.454 69.642 29.454 68.883c0-.76-6.985-30.363-6.985-30.363l14.537-12.905L62.87 36.432z" fill="#E87474"/><path d="M63.625 92.035c-.189 0-.566 0-.755-.19-34.55-21.254-34.55-21.822-34.55-22.772-.189-.949-4.342-18.598-6.985-29.984-.189-.57 0-1.138.377-1.328L36.25 24.856c.378-.379.944-.38 1.51-.19l25.11 10.628 25.675-10.437c.567-.19 1.133-.19 1.51.19l16.048 13.663c.377.38.566.949.377 1.518l-8.684 29.224c0 .38-.378.57-.567.76L64.192 92.034c-.189-.19-.377 0-.566 0zm-32.66-23.91c2.642 1.897 20.766 13.283 32.66 20.684l31.717-21.064 8.306-27.707-14.725-12.525-25.487 10.248c-.377.19-.755.19-1.133 0l-24.92-10.437L24.168 39.09c5.097 21.634 6.419 27.517 6.796 29.035z" fill="#5D5048"/><path d="M61.245 15.104l-.236 21.441 2.831.032.236-21.442-2.831-.031zM32.869 1.291l-2.757.652 5.623 24.014 2.757-.652L32.869 1.29zM2.238 30.87l-.842 2.719 21.092 6.594.841-2.718L2.238 30.87zM92.81 1.474l-5.619 24.209 2.758.646 5.62-24.208-2.759-.647zm33.157 28.741l-21.19 7.5.941 2.685 21.19-7.5-.941-2.685zM97.268 67.557l-1.847 2.158 16.602 14.355 1.847-2.158-16.602-14.355zM64.922 90.601l-2.831.059.467 22.768 2.831-.059-.467-22.768zM28.378 68.216L12.19 81.889l1.821 2.179L30.2 70.395l-1.821-2.179z" fill="#5D5048"/></g><defs><clipPath id="clip0_219_3270"><path fill="#fff" d="M0 0h128v115H0z"/></clipPath></defs></svg>