<svg width="30" height="16" fill="none" xmlns="http://www.w3.org/2000/svg"><path d="M15 10.915a3.385 3.385 0 100-6.77 3.385 3.385 0 000 6.77zm0-5.889a2.503 2.503 0 110 5.006 2.503 2.503 0 010-5.006z" fill="#5D5048"/><path d="M29.928 7.287C29.88 7.214 25.036 0 15 0 4.964 0 .12 7.214.072 7.287a.442.442 0 000 .484C.12 7.844 4.964 15.058 15 15.058c10.037 0 14.88-7.214 14.928-7.287a.443.443 0 000-.484zM.986 7.529a17.513 17.513 0 019.67-6.144 7.518 7.518 0 000 12.289 17.513 17.513 0 01-9.67-6.145zM15 .883A6.646 6.646 0 118.354 7.53 6.653 6.653 0 0115 .883zm4.343 12.79a7.518 7.518 0 000-12.29 17.513 17.513 0 019.671 6.146 17.513 17.513 0 01-9.67 6.144z" fill="#5D5048"/></svg>