<svg width="34" height="34" fill="none" xmlns="http://www.w3.org/2000/svg"><rect x=".5" y=".5" width="33" height="33" rx="16.5" stroke="#5D5048"/><path d="M20.198 10c-1.18 0-2.32.417-3.2 1.17a4.916 4.916 0 00-2.945-1.163 4.956 4.956 0 00-3.057.859 4.598 4.598 0 00-1.822 2.501 4.409 4.409 0 00.41 3.423c2.609 4.481 6.964 7.032 7.15 7.139a.532.532 0 00.532 0c.184-.106 4.54-2.658 7.152-7.143a4.417 4.417 0 00-.213-4.723 4.732 4.732 0 00-1.73-1.514A4.98 4.98 0 0020.2 10h-.002zm3.472 6c0 .002-.102.217-.156.31-2.114 3.63-5.54 5.988-6.515 6.61-.976-.622-4.401-2.979-6.512-6.605-.055-.097-.154-.304-.154-.304a3.462 3.462 0 01-.135-2.486 3.63 3.63 0 011.58-1.977 3.907 3.907 0 012.542-.527 3.823 3.823 0 012.294 1.173.53.53 0 00.385.158.55.55 0 00.384-.158 3.804 3.804 0 011.92-1.105 3.93 3.93 0 012.236.133c.714.26 1.329.721 1.762 1.324.434.602.666 1.315.666 2.046.001.484-.1.963-.298 1.408h.001z" fill="#5D5048"/></svg>