<svg width="18" height="18" fill="none" xmlns="http://www.w3.org/2000/svg"><path d="M17.747 11.415a1.528 1.528 0 00-.563-1.184 1.529 1.529 0 00-.729-2.873H11.19V1.749a1.734 1.734 0 10-3.465 0v1.04c.001.63-.2 1.242-.572 1.748l-2.069 2.82H.265A.265.265 0 000 7.624v10.112A.265.265 0 00.265 18h15.479a1.528 1.528 0 00.965-2.713 1.526 1.526 0 00.238-2.529 1.529 1.529 0 00.8-1.343zM.529 7.887h4.424v9.584H.529V7.887zm15.689 4.527h-.238a.264.264 0 100 .53.998.998 0 110 1.998h-.237a.265.265 0 000 .53 1 1 0 010 1.999H5.483V7.709L7.578 4.85c.44-.597.676-1.319.675-2.06V1.749a1.203 1.203 0 112.406 0v5.874a.265.265 0 00.265.264h5.53a1 1 0 010 2h-.237a.264.264 0 100 .528 1 1 0 110 2z" fill="#5D5048"/><path d="M2.741 13.961a1.298 1.298 0 100 2.596 1.298 1.298 0 000-2.596zm0 2.066a.768.768 0 110-1.535.768.768 0 010 1.535z" fill="#5D5048"/></svg>