<svg width="24" height="22" fill="none" xmlns="http://www.w3.org/2000/svg"><path d="M16.796 0a7.2 7.2 0 00-4.798 1.838A7.19 7.19 0 00.261 5.292a7.233 7.233 0 00.326 4.78s.185.405.29.598C4.789 17.712 11.323 21.72 11.6 21.889a.772.772 0 00.799 0c.276-.167 6.809-4.177 10.727-11.226.101-.186.287-.591.294-.608a7.235 7.235 0 00-.613-6.813A7.188 7.188 0 0016.8 0h-.003zm5.21 9.429c0 .003-.154.34-.235.486-3.171 5.706-8.31 9.41-9.773 10.39-1.463-.979-6.601-4.683-9.768-10.382-.082-.151-.23-.478-.23-.478a5.68 5.68 0 01-.202-3.906 5.666 5.666 0 012.37-3.107 5.643 5.643 0 017.253 1.016.794.794 0 001.154 0 5.651 5.651 0 016.234-1.528A5.656 5.656 0 0121.452 4a5.677 5.677 0 01.552 5.429h.002z" fill="#A09CCD"/></svg>