<svg width="52" height="52" fill="none" xmlns="http://www.w3.org/2000/svg"><path d="M37.667 51H14.333C7 51 1 45 1 37.667V14.333C1 7 7 1 14.333 1h23.334C45 1 51 7 51 14.333v23.334C51 45 45 51 37.667 51z" stroke="#4E4E50" stroke-miterlimit="10" stroke-linecap="round" stroke-linejoin="round"/><path d="M26 37.667c6.443 0 11.666-5.224 11.666-11.667S32.443 14.333 26 14.333c-6.444 0-11.667 5.224-11.667 11.667S19.556 37.667 26 37.667zm13.334-25a1.667 1.667 0 100-3.334 1.667 1.667 0 000 3.334z" stroke="#4E4E50" stroke-miterlimit="10" stroke-linecap="round" stroke-linejoin="round"/></svg>