<svg width="509" height="44" fill="none" xmlns="http://www.w3.org/2000/svg"><path d="M16.593 33.121h1.348a56.176 56.176 0 013.146-.073 93.393 93.393 0 013.67-.074 82.289 82.289 0 013.145-.074l1.273-.073H30c.55 0 1.198.098 1.947.294a3.755 3.755 0 011.948 1.032c.599.54.923 1.375.973 2.504.05 1.08-.274 1.94-.973 2.578-.65.59-1.448 1.007-2.397 1.252-.899.197-1.723.32-2.471.368l-1.049.074s-.524.05-1.573.147c-.998.05-2.322.172-3.97.369a97.816 97.816 0 00-5.392.81 49.27 49.27 0 00-5.617 1.178c-1.797.492-3.295.663-4.493.516-1.149-.098-2.047-.344-2.696-.736-.65-.443-1.124-.884-1.423-1.326-.25-.491-.375-.81-.375-.958-.05-.344.05-.761.3-1.252.25-.54.724-.909 1.423-1.105.25-.05.374-.736.374-2.062 0-1.375-.1-3.119-.3-5.23-.15-2.16-.374-4.493-.673-6.998-.3-2.504-.65-4.984-1.049-7.439a171.62 171.62 0 00-1.048-6.556c-.35-1.915-.7-3.339-1.049-4.272-.5-1.424-.55-2.529-.15-3.314.4-.786.949-1.35 1.648-1.694C2.663.614 3.337.368 3.936.27L4.91.123l.973-.074C6.583-.049 7.381 0 8.28.196c.949.148 1.822.565 2.621 1.253.849.638 1.448 1.718 1.798 3.24.449 2.014.973 4.395 1.572 7.145.65 2.701 1.199 5.82 1.648 9.355.5 3.535.724 7.513.674 11.932zm22.341 6.556c-.15-1.67-.25-3.757-.3-6.261-.05-2.553-.074-5.279-.074-8.176 0-2.897.025-5.696.075-8.397.1-2.75.2-5.18.3-7.292.1-2.112.199-3.634.299-4.567.15-1.178.574-2.062 1.273-2.652a5.812 5.812 0 012.322-1.325c.898-.246 1.647-.369 2.246-.369l.974-.073.899.147c.649.05 1.348.172 2.097.368.749.197 1.273.54 1.573 1.032.649.982.948 1.94.898 2.872 0 .884-.05 2.038-.15 3.462a162.165 162.165 0 00-.524 10.828 309.6 309.6 0 000 9.649c.05 2.897.1 5.205.15 6.924l.15 2.578-.075.81c0 .491-.15 1.056-.45 1.694-.299.638-.873 1.228-1.722 1.768-.849.49-2.097.736-3.745.736-1.647 0-2.92-.171-3.82-.515-.848-.393-1.447-.835-1.797-1.326-.3-.54-.474-.982-.524-1.326l-.075-.59zM67.65 8.446c-.65.098-1.573.172-2.772.221a31.3 31.3 0 01-3.67-.22c-1.247-.148-2.321-.418-3.22-.811-.898-.442-1.398-1.08-1.498-1.915-.05-.835.2-1.498.75-1.989a6.076 6.076 0 012.096-1.105c.8-.295 1.498-.466 2.097-.515l.974-.148L83.377.05h1.049c.699-.049 1.498-.024 2.396.074.949.098 1.798.343 2.547.736.749.344 1.148.909 1.198 1.694.1.786-.15 1.45-.749 1.99-.55.49-1.223.908-2.022 1.251-.799.295-1.498.516-2.097.663l-.899.148-4.793.736c.2 1.228.424 2.971.674 5.23.25 2.21.5 4.665.749 7.366.25 2.7.474 5.352.674 7.955.2 2.602.35 4.935.45 6.997.15 2.063.224 3.536.224 4.42 0 1.129-.324 1.988-.974 2.578-.599.54-1.323.933-2.171 1.178-.8.197-1.523.32-2.172.368h-1.873c-.649-.049-1.398-.245-2.246-.589-.8-.344-1.523-.982-2.172-1.915-.6-.933-.9-2.332-.9-4.198 0-1.67-.099-3.708-.299-6.114a211.58 211.58 0 00-.599-7.44c-.25-2.602-.524-5.008-.824-7.218-.25-2.21-.474-4.002-.674-5.377l-.224-2.136zm36.934 0c-.649.098-1.572.172-2.771.221a31.6 31.6 0 01-3.67-.22c-1.248-.148-2.321-.418-3.22-.811-.899-.442-1.398-1.08-1.498-1.915-.05-.835.2-1.498.75-1.989a6.067 6.067 0 012.096-1.105c.8-.295 1.498-.466 2.097-.515l.974-.148L120.312.05h1.049c.699-.049 1.498-.024 2.396.074.949.098 1.798.343 2.547.736.749.344 1.148.909 1.198 1.694.1.786-.15 1.45-.749 1.99-.549.49-1.223.908-2.022 1.251-.799.295-1.498.516-2.097.663l-.899.148-4.793.736c.2 1.228.424 2.971.674 5.23.25 2.21.499 4.665.749 7.366.25 2.7.474 5.352.674 7.955.2 2.602.349 4.935.449 6.997.15 2.063.225 3.536.225 4.42 0 1.129-.325 1.988-.974 2.578-.599.54-1.323.933-2.172 1.178-.798.197-1.522.32-2.171.368h-1.873c-.649-.049-1.398-.245-2.247-.589-.798-.344-1.522-.982-2.172-1.915-.599-.933-.898-2.332-.898-4.198 0-1.67-.1-3.708-.3-6.114a211.33 211.33 0 00-.599-7.44c-.25-2.602-.524-5.008-.824-7.218a174.99 174.99 0 00-.674-5.377l-.225-2.136zm42.927 24.675h1.348a56.138 56.138 0 013.145-.073 93.441 93.441 0 013.67-.074 82.285 82.285 0 013.146-.074l1.273-.073h.824c.549 0 1.198.098 1.947.294a3.753 3.753 0 011.947 1.032c.599.54.924 1.375.974 2.504.05 1.08-.275 1.94-.974 2.578-.649.59-1.448 1.007-2.396 1.252-.899.197-1.723.32-2.472.368l-1.048.074-1.573.147c-.999.05-2.322.172-3.969.369a97.75 97.75 0 00-5.393.81 49.311 49.311 0 00-5.617 1.178c-1.797.492-3.295.663-4.493.516-1.149-.098-2.048-.344-2.697-.736-.649-.443-1.123-.884-1.423-1.326-.249-.491-.374-.81-.374-.958-.05-.344.05-.761.3-1.252.249-.54.723-.909 1.422-1.105.25-.05.375-.736.375-2.062 0-1.375-.1-3.119-.3-5.23a140.19 140.19 0 00-.674-6.998 177.732 177.732 0 00-1.048-7.439c-.35-2.455-.699-4.64-1.049-6.556-.349-1.915-.699-3.339-1.048-4.272-.499-1.424-.549-2.529-.15-3.314.399-.786.949-1.35 1.648-1.694.749-.393 1.423-.639 2.022-.737l.973-.147.974-.074c.699-.098 1.498-.049 2.397.147.948.148 1.822.565 2.621 1.253.849.638 1.448 1.718 1.797 3.24.45 2.014.974 4.395 1.573 7.145.649 2.701 1.198 5.82 1.648 9.355.499 3.535.724 7.513.674 11.932zM167.53 6.089l-.15-.59c-.099-.441-.074-.957.075-1.546.2-.59.649-1.13 1.348-1.62.749-.492 1.923-.81 3.52-.958 1.598-.147 3.396-.27 5.393-.368 2.047-.099 3.994-.197 5.842-.295a421.7 421.7 0 014.643-.22l1.797-.075.974.074c.699 0 1.498.098 2.397.295a6.367 6.367 0 012.546.957c.749.442 1.198 1.105 1.348 1.989.15.884-.025 1.571-.524 2.062a4.787 4.787 0 01-1.798 1.105c-.699.197-1.323.32-1.872.369l-.824.073-11.983.663.225.958c.15.638.299 1.375.449 2.21.2.785.325 1.473.375 2.062.05.54.1 1.252.149 2.136.05.835.1 1.596.15 2.283l.075.958h5.542l.824.073c.549 0 1.173.099 1.872.295.749.147 1.399.393 1.948.737.549.343.849.859.898 1.546.05.884-.299 1.547-1.048 1.99a6.31 6.31 0 01-2.247.883c-.749.098-1.223.172-1.423.221-.15 0-.549.025-1.198.074h-5.093v1.105c.05.687.1 1.497.15 2.43a19.6 19.6 0 010 2.431c0 .638-.025 1.424-.075 2.357-.05.884-.1 1.67-.15 2.357l-.075.958 10.111-.369h.974c.649-.049 1.423 0 2.321.148.899.147 1.698.442 2.397.884.699.441 1.073 1.105 1.123 1.988.1.884-.15 1.596-.749 2.136a5.5 5.5 0 01-2.097 1.179c-.799.245-1.523.417-2.172.516l-.898.073-16.177.81h-1.199c-.749.05-1.622 0-2.621-.147-.999-.196-1.872-.565-2.621-1.105-.749-.589-1.099-1.473-1.049-2.651.1-1.572.2-4.027.3-7.366.1-3.388.05-7.341-.15-11.86-.2-4.517-.724-9.255-1.573-14.215zm61.398 37.344c-1.847 0-3.245-.245-4.194-.736-.899-.491-1.498-1.056-1.798-1.694-.299-.639-.449-1.203-.449-1.694v-.737l-.899-31.967-.075-.737c-.049-.491.05-1.056.3-1.694.25-.688.774-1.277 1.573-1.768.799-.54 2.047-.81 3.744-.81 2.247-.05 3.945.27 5.093.957 1.149.639 1.898 1.302 2.247 1.99l.599.957 8.613 15.394.599-1.326c.449-.933.974-2.087 1.573-3.462a346.317 346.317 0 001.947-4.198 173.748 173.748 0 011.723-3.683c.499-1.08.824-1.768.973-2.062.25-.491.699-1.154 1.348-1.99.649-.883 1.573-1.693 2.771-2.43 1.249-.736 2.871-1.13 4.869-1.178 1.497-.05 2.646.122 3.445.515.799.344 1.348.761 1.647 1.252.35.492.55.933.599 1.326l.075.59v6.85c.05 2.062.075 4.321.075 6.776V32.09c.05 2.063.075 3.732.075 5.009v1.989c0 .049-.025.294-.075.736 0 .442-.174.958-.524 1.547-.35.54-.974 1.031-1.872 1.473-.849.393-2.122.59-3.82.59s-2.996-.172-3.894-.516c-.849-.393-1.448-.81-1.798-1.252-.349-.491-.549-.909-.599-1.252l-.075-.516v-4.493c.05-1.326.075-2.627.075-3.904.05-1.326.075-2.43.075-3.315V26.86l.599-10.533-3.894 8.176-.45.81c-.249.54-.749 1.081-1.498 1.621s-1.872.835-3.37.884c-1.448.05-2.596-.147-3.445-.59-.799-.49-1.373-.957-1.723-1.399l-.449-.736-4.868-8.766.075 1.768c.1 1.13.2 2.627.299 4.493.1 1.817.2 3.757.3 5.82.1 2.013.175 3.928.225 5.745.1 1.767.174 3.191.224 4.272.05 1.326-.224 2.357-.823 3.093-.6.688-1.299 1.179-2.097 1.474-.799.245-1.523.392-2.172.441h-.899zm39.899-37.344l-.15-.59c-.1-.441-.075-.957.075-1.546.2-.59.649-1.13 1.348-1.62.749-.492 1.922-.81 3.52-.958 1.598-.147 3.395-.27 5.392-.368 2.048-.099 3.995-.197 5.842-.295 1.898-.098 3.445-.172 4.644-.22l1.797-.075.974.074c.699 0 1.498.098 2.396.295a6.365 6.365 0 012.547.957c.749.442 1.198 1.105 1.348 1.989.15.884-.025 1.571-.525 2.062a4.783 4.783 0 01-1.797 1.105c-.699.197-1.323.32-1.872.369l-.824.073-11.983.663.225.958c.149.638.299 1.375.449 2.21.2.785.324 1.473.374 2.062.05.54.1 1.252.15 2.136.05.835.1 1.596.15 2.283l.075.958h5.542l.824.073c.549 0 1.173.099 1.872.295.749.147 1.398.393 1.947.737.55.343.849.859.899 1.546.05.884-.299 1.547-1.048 1.99a6.31 6.31 0 01-2.247.883c-.749.098-1.223.172-1.423.221-.15 0-.549.025-1.198.074h-5.093v1.105c.05.687.1 1.497.15 2.43a20 20 0 010 2.431c0 .638-.025 1.424-.075 2.357-.05.884-.1 1.67-.15 2.357l-.075.958 10.111-.369h.973c.649-.049 1.423 0 2.322.148.899.147 1.698.442 2.397.884.699.441 1.073 1.105 1.123 1.988.1.884-.15 1.596-.749 2.136a5.5 5.5 0 01-2.097 1.179c-.799.245-1.523.417-2.172.516l-.899.073-16.177.81h-1.198c-.749.05-1.623 0-2.621-.147-.999-.196-1.873-.565-2.622-1.105-.749-.589-1.098-1.473-1.048-2.651.1-1.572.2-4.027.299-7.366.1-3.388.05-7.341-.149-11.86-.2-4.517-.724-9.255-1.573-14.215zm41.943 37.344c-1.848 0-3.246-.245-4.194-.736-.899-.491-1.498-1.056-1.798-1.694-.299-.639-.449-1.203-.449-1.694v-.737l-.899-31.967-.075-.737c-.05-.491.05-1.056.3-1.694.25-.688.774-1.277 1.573-1.768.798-.54 2.047-.81 3.744-.81 2.247-.05 3.945.27 5.093.957 1.148.639 1.897 1.302 2.247 1.99l.599.957 8.613 15.394.599-1.326c.449-.933.974-2.087 1.573-3.462a346.317 346.317 0 001.947-4.198 173.748 173.748 0 011.723-3.683 80.53 80.53 0 01.973-2.062c.25-.491.699-1.154 1.348-1.99.649-.883 1.573-1.693 2.771-2.43 1.249-.736 2.871-1.13 4.868-1.178 1.498-.05 2.647.122 3.446.515.798.344 1.348.761 1.647 1.252.35.492.549.933.599 1.326l.075.59v6.85c.05 2.062.075 4.321.075 6.776V32.09c.05 2.063.075 3.732.075 5.009v1.989c0 .049-.025.294-.075.736 0 .442-.175.958-.524 1.547-.35.54-.974 1.031-1.872 1.473-.849.393-2.122.59-3.82.59s-2.996-.172-3.895-.516c-.848-.393-1.447-.81-1.797-1.252-.349-.491-.549-.909-.599-1.252l-.075-.516v-4.493c.05-1.326.075-2.627.075-3.904.05-1.326.075-2.43.075-3.315V26.86l.599-10.533-3.895 8.176-.449.81c-.25.54-.749 1.081-1.498 1.621s-1.872.835-3.37.884c-1.448.05-2.596-.147-3.445-.59-.799-.49-1.373-.957-1.723-1.399l-.449-.736-4.868-8.766.075 1.768c.1 1.13.199 2.627.299 4.493.1 1.817.2 3.757.3 5.82.1 2.013.175 3.928.225 5.745.099 1.767.174 3.191.224 4.272.05 1.326-.224 2.357-.824 3.093-.599.688-1.298 1.179-2.097 1.474-.798.245-1.522.392-2.172.441h-.898zM350.894 22c0-3.93.698-7.514 2.097-10.755 1.398-3.29 3.295-5.893 5.691-7.808 2.397-1.964 5.043-2.946 7.939-2.946 2.147 0 4.194.565 6.141 1.694 1.948 1.08 3.67 2.627 5.168 4.64 1.498 1.965 2.671 4.248 3.52 6.85.849 2.603 1.273 5.378 1.273 8.324 0 2.946-.424 5.72-1.273 8.323-.849 2.603-2.022 4.91-3.52 6.924-1.498 1.964-3.22 3.511-5.168 4.64-1.947 1.08-3.994 1.621-6.141 1.621-2.896 0-5.542-.957-7.939-2.873-2.396-1.964-4.293-4.566-5.691-7.807-1.399-3.241-2.097-6.85-2.097-10.828zm11.458-.296c0 2.848.2 5.476.599 7.882.4 2.357.949 4.247 1.648 5.671.699 1.375 1.473 2.063 2.322 2.063s1.622-.688 2.321-2.063c.699-1.424 1.249-3.314 1.648-5.671.4-2.406.599-5.034.599-7.882 0-2.897-.199-5.524-.599-7.88-.399-2.358-.949-4.249-1.648-5.673-.699-1.424-1.472-2.136-2.321-2.136-.849 0-1.623.712-2.322 2.136-.699 1.424-1.248 3.315-1.648 5.672-.399 2.357-.599 4.984-.599 7.881zm27.682 17.752L386.589 7.34l-.225-.442c-.1-.294-.125-.687-.075-1.178.05-.491.325-1.007.824-1.547.549-.54 1.473-1.031 2.771-1.473 1.747-.639 3.794-1.154 6.141-1.547 2.397-.442 4.918-.565 7.564-.368 2.697.196 5.343.982 7.939 2.357 1.548.785 2.696 1.915 3.445 3.388a12.82 12.82 0 011.348 4.714c.15 1.67.15 3.266 0 4.788-.1 1.522-.274 2.774-.524 3.756l-.299 1.473-.525 1.105c-.349.737-1.023 1.572-2.022 2.505-.949.884-2.347 1.596-4.194 2.136l10.635 11.27.524.589c.35.393.624.884.824 1.473.25.54.2 1.105-.15 1.694-.299.54-1.123 1.007-2.471 1.4-1.398.392-2.646.49-3.745.294-1.048-.196-1.922-.516-2.621-.958-.649-.441-1.149-.859-1.498-1.252l-.524-.589-9.886-12.006 2.471 10.386.15.663c.1.392.05.859-.15 1.399-.199.54-.699 1.031-1.498 1.473-.799.393-2.072.59-3.819.59-1.748 0-3.121-.197-4.119-.59-.949-.393-1.623-.86-2.022-1.4-.4-.54-.65-1.006-.749-1.399l-.075-.59zm7.115-32.188l1.797 14.805.824.073c.599.05 1.298 0 2.097-.147a5.733 5.733 0 002.396-1.031c.799-.59 1.448-1.473 1.948-2.652.499-1.227.674-2.897.524-5.008-.15-2.014-.549-3.487-1.198-4.42-.649-.982-1.448-1.596-2.397-1.841a6.795 6.795 0 00-2.996-.221 27.344 27.344 0 00-2.995.442zm28.761 32.409c-.15-1.67-.25-3.757-.3-6.261a418.86 418.86 0 01-.075-8.176c0-2.897.025-5.696.075-8.397.1-2.75.2-5.18.3-7.292.099-2.112.199-3.634.299-4.567.15-1.178.574-2.062 1.273-2.652a5.811 5.811 0 012.322-1.325c.899-.246 1.648-.369 2.247-.369l.973-.073.899.147c.649.05 1.348.172 2.097.368.749.197 1.273.54 1.573 1.032.649.982.949 1.94.899 2.872 0 .884-.05 2.038-.15 3.462a161.5 161.5 0 00-.524 10.828 309.6 309.6 0 000 9.649c.05 2.897.099 5.205.149 6.924l.15 2.578-.075.81c0 .491-.149 1.056-.449 1.694-.3.638-.874 1.228-1.723 1.768-.848.49-2.097.736-3.744.736-1.648 0-2.921-.171-3.82-.515-.849-.393-1.448-.835-1.797-1.326-.3-.54-.475-.982-.525-1.326l-.074-.59zm18.23-33.588l-.15-.59c-.1-.441-.075-.957.075-1.546.2-.59.649-1.13 1.348-1.62.749-.492 1.922-.81 3.52-.958 1.598-.147 3.395-.27 5.392-.368 2.047-.099 3.995-.197 5.842-.295a421.7 421.7 0 014.643-.22l1.798-.075.973.074c.699 0 1.498.098 2.397.295a6.361 6.361 0 012.546.957c.749.442 1.199 1.105 1.349 1.989.149.884-.025 1.571-.525 2.062a4.783 4.783 0 01-1.797 1.105 10.46 10.46 0 01-1.873.369l-.823.073-11.983.663.224.958c.15.638.3 1.375.45 2.21.199.785.324 1.473.374 2.062.05.54.1 1.252.15 2.136.05.835.1 1.596.15 2.283l.075.958h5.542l.824.073c.549 0 1.173.099 1.872.295.749.147 1.398.393 1.947.737.549.343.849.859.899 1.546.05.884-.3 1.547-1.049 1.99a6.313 6.313 0 01-2.246.883c-.749.098-1.224.172-1.423.221-.15 0-.55.025-1.199.074h-5.092v1.105c.049.687.099 1.497.149 2.43a19.6 19.6 0 010 2.431c0 .638-.025 1.424-.075 2.357-.05.884-.099 1.67-.149 2.357l-.075.958 10.11-.369h.974c.649-.049 1.423 0 2.322.148.898.147 1.697.442 2.396.884.699.441 1.074 1.105 1.124 1.988.1.884-.15 1.596-.749 2.136a5.5 5.5 0 01-2.097 1.179c-.799.245-1.523.417-2.172.516l-.899.073-16.177.81h-1.198c-.749.05-1.623 0-2.622-.147-.998-.196-1.872-.565-2.621-1.105-.749-.589-1.098-1.473-1.048-2.651.1-1.572.199-4.027.299-7.366.1-3.388.05-7.341-.15-11.86-.199-4.517-.724-9.255-1.572-14.215zm58.419 7.955c-1.697 0-2.996-.196-3.894-.59-.899-.441-1.548-.932-1.948-1.472-.349-.54-.549-1.032-.599-1.473-.05-.492-.075-.786-.075-.884 0-.246-.099-.639-.299-1.179-.15-.59-.649-.884-1.498-.884a6.034 6.034 0 00-3.745 1.252c-1.048.835-1.622 2.063-1.722 3.683-.1 1.62.324 3.02 1.273 4.199.949 1.178 2.821 1.792 5.617 1.841 1.398 0 2.871.197 4.419.59a14.28 14.28 0 014.343 1.915c1.398.834 2.497 1.988 3.296 3.461.849 1.424 1.273 3.217 1.273 5.377-.05 4.322-1.223 7.66-3.52 10.018-2.297 2.357-6.116 3.535-11.459 3.535-3.545 0-6.391-.417-8.538-1.252-2.147-.884-3.719-1.915-4.718-3.093-.949-1.179-1.448-2.235-1.498-3.168-.05-.933 0-1.841.15-2.725.2-.884.724-1.645 1.573-2.283.898-.639 2.321-1.032 4.269-1.179 1.997-.147 3.42.025 4.269.516.848.442 1.373.957 1.572 1.547.25.589.375.957.375 1.104 0 .148.05.516.15 1.105.149.54.399 1.08.749 1.62.399.492.948.737 1.647.737 1.049 0 1.947-.417 2.696-1.252.749-.835 1.224-2.185 1.423-4.051.35-3.683-1.522-5.524-5.617-5.524-.998 0-2.296-.148-3.894-.442-1.548-.344-3.096-.933-4.643-1.768-1.548-.884-2.846-2.112-3.895-3.683-1.048-1.571-1.548-3.634-1.498-6.187.05-2.554.524-4.64 1.423-6.261.899-1.67 2.072-2.946 3.52-3.83a15.623 15.623 0 014.868-1.99 28.643 28.643 0 015.318-.662c2.346-.05 4.593.221 6.74.81 2.197.59 4.019 1.498 5.467 2.726 1.498 1.178 2.347 2.725 2.547 4.64.15 1.424-.075 2.504-.674 3.241a4.535 4.535 0 01-2.097 1.473c-.799.246-1.523.393-2.172.442h-.974z" fill="#E8E6E2"/></svg>