<svg width="44" height="509" fill="none" xmlns="http://www.w3.org/2000/svg"><path d="M33.121 492.407v-1.348a55.996 55.996 0 01-.073-3.146 93.364 93.364 0 01-.074-3.67 82.238 82.238 0 01-.074-3.145l-.073-1.273v-.824c0-.549.098-1.198.294-1.947a3.76 3.76 0 011.032-1.948c.54-.599 1.375-.923 2.504-.973 1.08-.05 1.94.274 2.578.973.59.65 1.007 1.448 1.252 2.397.197.899.32 1.723.368 2.472l.074 1.048s.05.524.147 1.573c.05.998.172 2.322.369 3.969.196 1.648.466 3.445.81 5.393a49.311 49.311 0 001.178 5.617c.492 1.797.663 3.295.516 4.493-.098 1.149-.344 2.047-.736 2.696-.443.649-.884 1.124-1.326 1.423-.491.25-.81.375-.958.375-.344.05-.761-.05-1.252-.3-.54-.249-.909-.724-1.105-1.423-.05-.249-.736-.374-2.062-.374-1.375 0-3.119.1-5.23.299-2.16.15-4.493.375-6.998.674-2.504.3-4.984.649-7.439 1.049-2.455.349-4.64.699-6.556 1.048-1.915.35-3.339.699-4.272 1.049-1.424.499-2.529.549-3.314.15-.786-.4-1.35-.949-1.694-1.648-.393-.749-.639-1.423-.737-2.022l-.147-.974-.074-.973c-.098-.699-.049-1.498.147-2.397.148-.949.565-1.822 1.253-2.621.638-.849 1.718-1.448 3.24-1.798 2.014-.449 4.395-.973 7.145-1.572 2.701-.649 5.82-1.199 9.355-1.648 3.535-.499 7.513-.724 11.932-.674zm6.556-22.341c-1.67.15-3.757.249-6.261.299a454.088 454.088 0 01-16.573 0 676.1 676.1 0 01-7.292-.299c-2.112-.1-3.634-.2-4.567-.3-1.178-.15-2.062-.574-2.652-1.273a5.811 5.811 0 01-1.325-2.322c-.246-.898-.369-1.647-.369-2.247l-.073-.973.147-.899c.05-.649.172-1.348.368-2.097.197-.749.54-1.273 1.032-1.573.982-.649 1.94-.948 2.872-.898.884 0 2.038.05 3.462.149 3.683.3 7.292.475 10.828.525 3.535.05 6.752.05 9.649 0 2.897-.05 5.205-.1 6.924-.15l2.578-.15.81.075c.491 0 1.056.15 1.694.449.638.3 1.228.874 1.768 1.723.49.849.736 2.097.736 3.745 0 1.647-.171 2.92-.515 3.819-.393.849-.835 1.448-1.326 1.798-.54.299-.982.474-1.326.524l-.59.075zM8.446 441.35c.098.65.172 1.573.221 2.771 0 1.199-.074 2.422-.22 3.67-.148 1.249-.418 2.322-.811 3.221-.442.898-1.08 1.398-1.915 1.498-.835.05-1.498-.2-1.989-.749a6.097 6.097 0 01-1.105-2.097c-.295-.799-.466-1.498-.515-2.097l-.148-.974-1.915-20.97v-1.049c-.049-.699-.024-1.498.074-2.396.098-.949.343-1.798.736-2.547.344-.749.909-1.148 1.694-1.198.786-.1 1.45.15 1.99.749.49.549.908 1.223 1.251 2.022.295.799.516 1.498.663 2.097l.148.899.736 4.793c1.228-.2 2.971-.424 5.23-.674 2.21-.25 4.665-.499 7.366-.749 2.7-.25 5.352-.474 7.955-.674 2.602-.2 4.935-.35 6.997-.449 2.063-.15 3.536-.225 4.42-.225 1.129 0 1.988.324 2.578.974.54.599.933 1.323 1.178 2.171.197.799.32 1.523.368 2.172v1.873c-.049.649-.245 1.398-.589 2.247-.344.798-.982 1.522-1.915 2.171-.933.6-2.332.899-4.198.899-1.67 0-3.708.1-6.114.3-2.406.15-4.886.349-7.44.599-2.602.25-5.008.524-7.218.824-2.21.249-4.002.474-5.377.674l-2.136.224zm0-36.934c.098.649.172 1.572.221 2.771a31.57 31.57 0 01-.22 3.669c-.148 1.249-.418 2.322-.811 3.221-.442.899-1.08 1.398-1.915 1.498-.835.05-1.498-.2-1.989-.749a6.088 6.088 0 01-1.105-2.097c-.295-.799-.466-1.498-.515-2.097l-.148-.974-1.915-20.97v-1.049c-.049-.699-.024-1.498.074-2.396.098-.949.343-1.798.736-2.547.344-.749.909-1.148 1.694-1.198.786-.1 1.45.15 1.99.749.49.549.908 1.223 1.251 2.022.295.799.516 1.498.663 2.097l.148.899.736 4.793c1.228-.2 2.971-.424 5.23-.674 2.21-.25 4.665-.499 7.366-.749 2.7-.25 5.352-.474 7.955-.674 2.602-.2 4.935-.349 6.997-.449 2.063-.15 3.536-.225 4.42-.225 1.129 0 1.988.325 2.578.974.54.599.933 1.323 1.178 2.172.197.798.32 1.522.368 2.171v1.873c-.049.649-.245 1.398-.589 2.247-.344.798-.982 1.522-1.915 2.172-.933.599-2.332.898-4.198.898-1.67 0-3.708.1-6.114.3-2.406.15-4.886.349-7.44.599-2.602.25-5.008.524-7.218.824-2.21.249-4.002.474-5.377.674l-2.136.225zm24.675-42.927v-1.348a55.957 55.957 0 01-.073-3.145 93.441 93.441 0 01-.074-3.67 82.285 82.285 0 01-.074-3.146l-.073-1.273v-.824c0-.549.098-1.198.294-1.947a3.753 3.753 0 011.032-1.947c.54-.599 1.375-.924 2.504-.974 1.08-.05 1.94.275 2.578.974.59.649 1.007 1.448 1.252 2.396.197.899.32 1.723.368 2.472l.074 1.048.147 1.573c.05.999.172 2.322.369 3.969a97.75 97.75 0 00.81 5.393 49.311 49.311 0 001.178 5.617c.492 1.797.663 3.295.516 4.493-.098 1.149-.344 2.048-.737 2.697-.442.649-.883 1.123-1.325 1.423-.491.249-.81.374-.958.374-.344.05-.761-.05-1.252-.3-.54-.249-.909-.723-1.105-1.422-.05-.25-.737-.375-2.062-.375-1.375 0-3.119.1-5.23.3-2.16.149-4.493.374-6.998.674a177.75 177.75 0 00-7.439 1.048c-2.455.35-4.64.699-6.556 1.049-1.915.349-3.339.699-4.272 1.048-1.424.499-2.529.549-3.314.15-.786-.399-1.35-.949-1.694-1.648-.393-.749-.639-1.423-.737-2.022l-.147-.973-.074-.974c-.098-.699-.049-1.498.147-2.397.148-.948.565-1.822 1.253-2.621.638-.849 1.718-1.448 3.24-1.797 2.014-.45 4.395-.974 7.145-1.573 2.701-.649 5.82-1.198 9.355-1.648 3.535-.499 7.513-.724 11.932-.674zM6.089 341.47l-.59.15c-.441.099-.957.074-1.546-.075-.59-.2-1.13-.649-1.62-1.348-.492-.749-.81-1.923-.958-3.52-.147-1.598-.27-3.396-.368-5.393-.099-2.047-.197-3.994-.295-5.842a449.452 449.452 0 01-.221-4.643l-.074-1.797.074-.974c0-.699.098-1.498.295-2.397a6.367 6.367 0 01.957-2.546c.442-.749 1.105-1.198 1.989-1.348.884-.15 1.571.025 2.062.524.491.499.86 1.099 1.105 1.798.197.699.32 1.323.369 1.872l.073.824.663 11.983.958-.225a43.05 43.05 0 012.21-.449c.785-.2 1.473-.325 2.062-.375.54-.05 1.252-.1 2.136-.149.835-.05 1.596-.1 2.283-.15l.958-.075v-5.542l.073-.824c0-.549.099-1.173.295-1.872.147-.749.393-1.399.737-1.948.343-.549.859-.849 1.546-.898.884-.05 1.547.299 1.99 1.048a6.31 6.31 0 01.883 2.247c.098.749.172 1.223.221 1.423 0 .15.025.549.074 1.198v5.093h1.105c.687-.05 1.497-.1 2.43-.15a19.6 19.6 0 012.431 0c.638 0 1.424.025 2.357.075.884.05 1.67.1 2.357.15l.958.075-.369-10.111v-.974c-.049-.649 0-1.423.148-2.321.147-.899.442-1.698.884-2.397.441-.699 1.104-1.073 1.988-1.123.884-.1 1.596.15 2.136.749a5.5 5.5 0 011.179 2.097c.245.799.417 1.523.516 2.172l.073.898.81 16.177v1.199c.05.749 0 1.622-.147 2.621-.196.999-.565 1.872-1.105 2.621-.589.749-1.473 1.099-2.651 1.049-1.572-.1-4.027-.2-7.366-.3-3.388-.1-7.341-.05-11.86.15-4.517.2-9.255.724-14.215 1.573zm37.344-61.398c0 1.847-.245 3.245-.736 4.194-.491.899-1.056 1.498-1.694 1.798-.639.299-1.203.449-1.694.449h-.737l-31.967.899-.737.075c-.491.049-1.056-.05-1.694-.3-.688-.25-1.277-.774-1.768-1.573-.54-.799-.81-2.047-.81-3.744-.05-2.247.27-3.945.957-5.093.639-1.149 1.302-1.898 1.99-2.247l.957-.599 15.394-8.613-1.326-.599c-.933-.449-2.087-.974-3.462-1.573a345.591 345.591 0 00-4.198-1.947 173.728 173.728 0 01-3.683-1.723 85.355 85.355 0 01-2.062-.973c-.491-.25-1.154-.699-1.99-1.348-.883-.649-1.693-1.573-2.43-2.771-.736-1.249-1.13-2.871-1.178-4.869-.05-1.497.122-2.646.515-3.445.344-.799.761-1.348 1.252-1.647.492-.35.933-.55 1.326-.599l.59-.075h6.85c2.062-.05 4.321-.075 6.776-.075H32.09c2.063-.05 3.732-.075 5.009-.075h1.989c.049 0 .294.025.736.075.442 0 .958.174 1.547.524.54.35 1.031.974 1.473 1.872.393.849.59 2.122.59 3.82s-.172 2.996-.516 3.894c-.393.849-.81 1.448-1.252 1.798-.491.349-.909.549-1.252.599l-.516.075h-4.493c-1.326-.05-2.627-.075-3.904-.075a90.715 90.715 0 00-3.315-.075H26.86l-10.533-.599 8.176 3.894.81.45c.54.249 1.081.749 1.621 1.498s.835 1.872.884 3.37c.05 1.448-.147 2.596-.59 3.445-.49.799-.957 1.373-1.399 1.723l-.736.449-8.766 4.868 1.768-.075c1.13-.1 2.627-.2 4.493-.299 1.817-.1 3.757-.2 5.82-.3 2.013-.1 3.928-.175 5.745-.225 1.767-.1 3.191-.174 4.272-.224 1.326-.05 2.357.224 3.093.823.688.6 1.179 1.299 1.474 2.097.245.799.392 1.523.441 2.172v.899zM6.089 240.173l-.59.15c-.441.1-.957.075-1.546-.075-.59-.2-1.13-.649-1.62-1.348-.492-.749-.81-1.922-.958-3.52-.147-1.598-.27-3.395-.368-5.392-.099-2.048-.197-3.995-.295-5.842a449.448 449.448 0 01-.221-4.644l-.074-1.797.074-.974c0-.699.098-1.498.295-2.396a6.365 6.365 0 01.957-2.547c.442-.749 1.105-1.198 1.989-1.348.884-.15 1.571.025 2.062.525.491.499.86 1.098 1.105 1.797.197.699.32 1.323.369 1.872l.073.824.663 11.983.958-.225a44.27 44.27 0 012.21-.449 12.94 12.94 0 012.062-.374c.54-.05 1.252-.1 2.136-.15.835-.05 1.596-.1 2.283-.15l.958-.075v-5.542l.073-.824c0-.549.099-1.173.295-1.872.147-.749.393-1.398.737-1.947.343-.55.859-.849 1.546-.899.884-.05 1.547.299 1.99 1.048a6.31 6.31 0 01.883 2.247c.098.749.172 1.223.221 1.423 0 .15.025.549.074 1.198v5.093h1.105c.687-.05 1.497-.1 2.43-.15a20 20 0 012.431 0c.638 0 1.424.025 2.357.075.884.05 1.67.1 2.357.15l.958.075-.369-10.111v-.973c-.049-.649 0-1.423.148-2.322.147-.899.442-1.698.884-2.397.441-.699 1.104-1.073 1.988-1.123.884-.1 1.596.15 2.136.749a5.5 5.5 0 011.179 2.097c.245.799.417 1.523.516 2.172l.073.899.81 16.177v1.198c.05.749 0 1.623-.147 2.621-.196.999-.565 1.873-1.105 2.622-.589.748-1.473 1.098-2.651 1.048-1.572-.1-4.027-.2-7.366-.3-3.388-.099-7.341-.049-11.86.15-4.517.2-9.255.724-14.215 1.573zm37.344-41.943c0 1.848-.245 3.246-.736 4.194-.491.899-1.056 1.498-1.694 1.798-.639.299-1.203.449-1.694.449h-.737l-31.967.899-.737.075c-.491.05-1.056-.05-1.694-.3-.688-.25-1.277-.774-1.768-1.573-.54-.798-.81-2.047-.81-3.744-.05-2.247.27-3.945.957-5.093.639-1.148 1.302-1.897 1.99-2.247l.957-.599 15.394-8.613-1.326-.599c-.933-.449-2.087-.974-3.462-1.573a345.591 345.591 0 00-4.198-1.947 173.728 173.728 0 01-3.683-1.723 81.386 81.386 0 01-2.062-.973c-.491-.25-1.154-.699-1.99-1.348-.883-.649-1.693-1.573-2.43-2.771-.736-1.249-1.13-2.871-1.178-4.868-.05-1.498.122-2.647.515-3.446.344-.798.761-1.348 1.252-1.647.492-.35.933-.549 1.326-.599l.59-.075h6.85c2.062-.05 4.321-.075 6.776-.075H32.09c2.063-.05 3.732-.075 5.009-.075h1.989c.049 0 .294.025.736.075.442 0 .958.175 1.547.524.54.35 1.031.974 1.473 1.872.393.849.59 2.122.59 3.82s-.172 2.996-.516 3.895c-.393.848-.81 1.447-1.252 1.797-.491.349-.909.549-1.252.599l-.516.075h-4.493c-1.326-.05-2.627-.075-3.904-.075a90.715 90.715 0 00-3.315-.075H26.86l-10.533-.599 8.176 3.895.81.449c.54.25 1.081.749 1.621 1.498s.835 1.872.884 3.37c.05 1.448-.147 2.596-.59 3.445-.49.799-.957 1.373-1.399 1.723l-.736.449-8.766 4.868 1.768-.075c1.13-.1 2.627-.199 4.493-.299 1.817-.1 3.757-.2 5.82-.3 2.013-.1 3.928-.175 5.745-.225a464.57 464.57 0 014.272-.224c1.326-.05 2.357.224 3.093.824.688.599 1.179 1.298 1.474 2.097.245.798.392 1.522.441 2.172v.898zM22 158.106c-3.93 0-7.514-.698-10.755-2.097-3.29-1.398-5.893-3.295-7.808-5.691-1.964-2.397-2.946-5.043-2.946-7.939 0-2.147.565-4.194 1.694-6.141 1.08-1.948 2.627-3.67 4.64-5.168 1.965-1.498 4.248-2.671 6.85-3.52 2.603-.849 5.378-1.273 8.324-1.273 2.946 0 5.72.424 8.323 1.273 2.603.849 4.91 2.022 6.924 3.52 1.964 1.498 3.511 3.22 4.64 5.168 1.08 1.947 1.621 3.994 1.621 6.141 0 2.896-.957 5.542-2.873 7.939-1.964 2.396-4.566 4.293-7.807 5.691-3.241 1.398-6.85 2.097-10.828 2.097zm-.296-11.458c2.848 0 5.476-.2 7.882-.599 2.357-.4 4.247-.949 5.671-1.648 1.375-.699 2.063-1.473 2.063-2.322s-.688-1.622-2.063-2.321c-1.424-.699-3.314-1.249-5.671-1.648-2.406-.4-5.034-.599-7.882-.599-2.897 0-5.524.199-7.88.599-2.358.399-4.249.949-5.673 1.648-1.424.699-2.136 1.472-2.136 2.321 0 .849.712 1.623 2.136 2.322 1.424.699 3.315 1.248 5.672 1.648 2.357.399 4.984.599 7.881.599zm17.752-27.682L7.34 122.411l-.442.225c-.294.1-.687.125-1.178.075-.491-.05-1.007-.325-1.547-.824-.54-.549-1.031-1.473-1.473-2.771-.639-1.747-1.154-3.794-1.547-6.141-.442-2.397-.565-4.918-.368-7.564.196-2.697.982-5.343 2.357-7.94.785-1.547 1.915-2.695 3.388-3.444a12.837 12.837 0 014.714-1.348c1.67-.15 3.266-.15 4.788 0 1.522.1 2.774.274 3.756.524l1.473.3 1.105.524c.737.35 1.572 1.023 2.505 2.022.884.948 1.596 2.346 2.136 4.194l11.27-10.635.589-.524c.393-.35.884-.624 1.473-.824.54-.25 1.105-.2 1.694.15.54.3 1.007 1.123 1.4 2.471.392 1.398.49 2.646.294 3.745-.196 1.048-.516 1.922-.958 2.621-.442.65-.859 1.148-1.252 1.498l-.589.524-12.006 9.886 10.386-2.471.663-.15c.392-.1.859-.05 1.399.15.54.199 1.031.699 1.473 1.498.393.799.59 2.072.59 3.819 0 1.748-.197 3.121-.59 4.119-.393.949-.86 1.623-1.4 2.022-.54.4-1.006.65-1.399.749l-.59.075zm-32.188-7.115l14.805-1.797.073-.824c.05-.599 0-1.298-.147-2.097a5.733 5.733 0 00-1.031-2.396c-.59-.799-1.473-1.448-2.652-1.948-1.227-.499-2.897-.674-5.008-.524-2.014.15-3.487.549-4.42 1.198-.982.649-1.596 1.448-1.841 2.397a6.795 6.795 0 00-.221 2.996c.098 1.048.245 2.047.442 2.995zM39.677 83.09c-1.67.15-3.757.25-6.261.3a454.956 454.956 0 01-16.573 0c-2.75-.1-5.18-.2-7.292-.3-2.112-.1-3.634-.2-4.567-.3-1.178-.149-2.062-.573-2.652-1.272a5.812 5.812 0 01-1.325-2.322c-.246-.899-.369-1.648-.369-2.247l-.073-.973.147-.9c.05-.648.172-1.347.368-2.096.197-.75.54-1.273 1.031-1.573.983-.649 1.94-.949 2.873-.899.884 0 2.038.05 3.462.15 3.683.3 7.292.474 10.828.524 3.535.05 6.752.05 9.649 0 2.897-.05 5.205-.1 6.924-.15l2.578-.15.81.076c.491 0 1.056.15 1.694.45.638.299 1.228.873 1.768 1.722.49.848.736 2.097.736 3.744 0 1.648-.172 2.921-.515 3.82-.393.849-.835 1.448-1.326 1.797-.54.3-.982.475-1.326.525l-.59.075zM6.089 64.86l-.59.15c-.441.1-.957.075-1.546-.075-.59-.2-1.13-.649-1.62-1.348-.492-.749-.81-1.922-.958-3.52-.147-1.598-.27-3.395-.368-5.392a1132.74 1132.74 0 00-.295-5.842 449.42 449.42 0 01-.295-6.44l.074-.974c0-.7.098-1.498.295-2.397a6.364 6.364 0 01.957-2.546c.442-.75 1.105-1.199 1.989-1.349.884-.15 1.571.026 2.062.525.491.5.86 1.098 1.105 1.797.197.7.32 1.323.369 1.873l.073.823.663 11.983.958-.224c.638-.15 1.375-.3 2.21-.45a12.94 12.94 0 012.062-.374c.54-.05 1.252-.1 2.136-.15.835-.05 1.596-.1 2.283-.15l.958-.075v-5.542l.073-.824c0-.549.099-1.173.295-1.872.147-.749.393-1.398.737-1.947.343-.55.859-.849 1.546-.899.884-.05 1.547.3 1.99 1.049a6.31 6.31 0 01.883 2.246c.098.75.172 1.224.221 1.423 0 .15.025.55.074 1.199v5.092h1.105c.687-.05 1.497-.1 2.43-.15a19.64 19.64 0 012.431 0c.638 0 1.424.026 2.357.076.884.05 1.67.1 2.357.15l.958.074-.369-10.11v-.974c-.049-.65 0-1.423.148-2.322.147-.898.442-1.697.884-2.396.441-.7 1.104-1.074 1.988-1.124.884-.1 1.596.15 2.136.75a5.5 5.5 0 011.179 2.096c.245.8.417 1.523.516 2.172l.073.899.81 16.177v1.198c.05.75 0 1.623-.147 2.621-.196 1-.565 1.873-1.105 2.622-.589.749-1.473 1.098-2.651 1.048-1.572-.1-4.027-.2-7.366-.3-3.389-.1-7.341-.05-11.86.15-4.517.2-9.255.724-14.215 1.573zm7.955-58.42c0 1.698-.196 2.997-.59 3.895-.441.9-.932 1.548-1.472 1.948-.54.35-1.032.549-1.473.599-.492.05-.786.075-.884.075-.246 0-.639.1-1.179.3-.59.149-.884.648-.884 1.497 0 1.398.418 2.646 1.252 3.745.835 1.048 2.063 1.623 3.683 1.722 1.62.1 3.02-.324 4.199-1.273 1.178-.948 1.792-2.82 1.841-5.617 0-1.398.197-2.87.59-4.419a14.275 14.275 0 011.915-4.343c.834-1.398 1.988-2.497 3.461-3.296C25.927.424 27.72 0 29.88 0c4.322.05 7.66 1.223 10.018 3.52 2.357 2.297 3.535 6.116 3.535 11.459 0 3.545-.417 6.39-1.252 8.538-.884 2.147-1.915 3.72-3.093 4.718-1.179.949-2.235 1.448-3.168 1.498-.933.05-1.841 0-2.725-.15-.884-.2-1.645-.724-2.283-1.573-.639-.899-1.032-2.321-1.179-4.269-.147-1.997.025-3.42.516-4.269.442-.848.957-1.373 1.547-1.572.589-.25.957-.375 1.104-.375.148 0 .516-.05 1.105-.15.54-.15 1.08-.4 1.62-.749.492-.399.737-.948.737-1.647 0-1.049-.417-1.947-1.252-2.696-.835-.75-2.185-1.224-4.051-1.423-3.683-.35-5.524 1.522-5.524 5.617 0 .998-.148 2.296-.442 3.894-.344 1.548-.933 3.096-1.768 4.644-.884 1.547-2.112 2.845-3.683 3.894-1.571 1.049-3.634 1.548-6.187 1.498-2.554-.05-4.64-.524-6.261-1.423-1.67-.899-2.946-2.072-3.83-3.52a15.618 15.618 0 01-1.99-4.868 28.638 28.638 0 01-.662-5.318c-.05-2.346.221-4.593.81-6.74.59-2.197 1.498-4.02 2.726-5.467C5.426 1.573 6.973.724 8.888.524c1.424-.15 2.504.075 3.24.674a4.527 4.527 0 011.474 2.097c.246.8.393 1.523.442 2.172v.974z" fill="#E8E6E2"/></svg>