<svg width="603" height="533" fill="none" xmlns="http://www.w3.org/2000/svg"><path class="heart-anim" fill-rule="evenodd" clip-rule="evenodd" d="M563.357 43.189c16.119 11.986 49.597-21.906 36.785-35.958-5.373-5.787-20.666-6.613-26.039 9.506 1.24-6.613-10.333-19.426-18.599-15.292-15.706 8.679-2.48 34.304 7.853 41.744z" fill="#584940"/><path fill-rule="evenodd" clip-rule="evenodd" d="M199.645 199.42c-22.732 36.784-30.585 51.25-42.158 58.276-11.159 6.613-26.038 5.787-60.343 13.226-108.287 22.319-90.101 298.409 38.851 246.332 42.984-17.359 47.944-114.073 132.672-51.25 40.505 29.758 62.41 82.662 104.981 51.25 33.065-24.798 11.573-79.768 33.065-131.432 36.784-88.861 12.399-141.352-32.238-175.656-57.864-44.638-149.205-52.904-174.83-10.746z" fill="#C5D7DF"/><path fill-rule="evenodd" clip-rule="evenodd" d="M276.107 216.365c-73.982-12.812-54.97 103.741-6.613 145.072 30.172 25.625 95.061 7.853 95.061-38.025 0-48.77-44.637-99.607-88.448-107.047z" fill="#F6F2EE"/><path fill-rule="evenodd" clip-rule="evenodd" d="M97.144 511.467c7.853 0 10.333-15.292 6.613-33.891-6.2-29.758-28.518-69.436-41.744-73.156v17.359c0 15.293 7.44 42.984 13.64 57.45 2.892 8.266 14.878 32.238 21.491 32.238zm176.483-150.031c31.825 0 53.317-20.665 51.25-51.664-.826-14.465-6.613-27.691-14.465-38.437l-7.853-9.506c-17.773-18.186-42.984-33.892-71.916-33.892-2.893 0-6.613 9.506-7.44 11.986-7.439 18.186-11.159 30.172-11.159 52.904 0 16.532 5.373 37.198 15.706 48.77 5.373 5.787 11.159 10.333 18.599 14.053 7.026 2.893 18.599 5.786 27.278 5.786zM503.84 143.622c0 39.265 10.746 59.93-11.986 102.501-8.266 15.292-20.252 26.452-32.238 38.851-7.853 7.853-16.532 14.879-23.972 23.145-7.439 8.266-14.879 16.533-21.492 26.039l-9.092 14.466c-9.093 15.705-21.079 51.25-26.039 68.609-7.026 26.038-18.599 68.196-30.998 87.208-13.226 19.839-34.718 38.851-59.103 21.492l-10.746-9.506-1.654-1.653c-13.226-14.466-23.972-31.412-35.958-46.704-3.719-4.547-13.225-14.053-17.772-17.773-13.226-10.332-20.665-14.465-39.678-14.465-35.544 0-34.304 52.49-44.637 75.222-12.812 28.518-26.038 22.732-24.798 14.879 14.052-7.026 13.639-8.679 19.838-30.585 5.787-20.252 7.853-43.397 22.732-58.69 7.027-7.026 16.533-10.746 30.172-10.746 35.958 0 58.69 32.652 78.115 58.277 9.92 13.226 25.625 38.851 43.811 38.851 7.853 0 13.639-4.133 19.012-8.68l5.787-5.786c12.399-14.052 17.359-31.825 23.558-49.597 8.266-24.385 13.64-50.424 23.146-74.396 1.653-4.133 3.306-7.852 4.546-11.986 2.893-9.092 5.786-14.879 9.506-23.145 8.68-16.946 14.879-24.385 26.039-38.438 8.266-10.332 18.185-19.425 27.691-28.518 1.654-1.653 2.893-2.067 4.547-3.72l11.572-11.986c7.44-8.679 11.986-12.399 18.186-22.732 9.919-16.945 14.466-36.371 14.466-57.036 0-15.293-2.893-28.105-2.893-42.984 0-11.573 2.066-29.345 6.199-37.198 2.48-4.96 4.96-9.506 8.266-13.226 2.067-2.48 9.92-8.68 9.92-12.4 0-3.306-6.2-12.812-20.252 6.2-12.813 17.359-17.773 39.678-22.319 61.17-4.546 22.319-2.48 59.103-24.385 72.329-9.506 5.786-19.426 4.133-28.932-.413-15.292-7.44-29.345-19.839-44.637-28.932-8.266-4.96-16.533-8.68-26.039-11.573-32.651-10.746-69.022-6.613-94.234 13.226-2.067 1.654-3.72 2.893-5.373 4.547l-12.813 14.879c-1.24 1.653-3.306 3.72-3.306 6.199 21.079 0 44.637 10.746 59.93 23.559 2.066 1.653 4.546 3.72 6.612 5.786 8.267 8.267 15.293 16.533 21.493 26.452 17.772 30.172 14.879 75.222-21.493 90.102-3.306 1.24-6.612 2.479-9.919 3.306-18.599 4.96-40.504 2.067-56.623-7.853l-11.573-9.093c-1.24-1.24-2.066-2.48-3.306-3.719-2.067-2.48-4.133-5.373-5.787-7.853-16.119-25.212-14.879-63.237-5.373-91.342 2.48-6.613 6.613-12.812 8.266-19.838-20.252 0-46.29 12.399-59.929 20.252-17.359 9.919-30.999 21.492-44.638 35.131-9.919 9.919-18.599 21.492-26.038 33.478-10.746 17.772-17.772 38.024-21.492 58.277-.827 4.959-2.894 11.986-2.894 17.359 2.067 1.239 3.307 2.066 5.374 3.719 25.211 20.666 55.383 81.422 41.744 114.074-2.067 5.373-6.613 9.919-12.813 9.919-14.466 0-28.105-31.411-32.651-42.984l-4.547-14.053c-4.96-16.945-7.853-32.651-7.853-52.077 0-5.786.827-8.679.827-14.465-5.786-4.547-29.345-16.119-42.984-10.746-2.893 1.24-10.333 4.133-9.92-.827 0-4.96 5.787-7.44 9.92-8.266 13.64-2.48 33.065 4.133 44.224 10.333 3.72-15.706 5.786-31.825 11.986-47.118 7.853-19.425 16.946-35.544 30.171-51.663 14.466-17.773 32.652-32.652 52.078-45.051 12.399-8.266 26.451-14.053 40.504-19.426 9.093-3.306 20.665-4.959 30.998-5.786 2.893-.413 3.72-.413 5.373-2.48l6.2-9.093c12.812-17.359 30.171-32.238 51.25-38.437 26.038-7.44 53.73-4.96 78.529 4.133 11.159 4.133 21.905 10.333 31.824 16.946 7.027 4.546 14.053 10.332 21.079 14.879 7.44 4.546 16.119 11.572 25.625 10.332 6.613-.826 11.986-5.786 14.466-10.746 2.893-6.199 4.547-10.746 6.2-18.185 2.893-13.226 3.306-28.932 6.613-42.158 4.96-21.079 10.333-44.224 23.558-61.996 19.013-26.039 35.132-14.466 37.198-2.48 1.24 7.44-6.613 15.292-10.332 19.012-3.307 3.307-4.134 4.133-6.613 7.853-2.067 3.306-3.307 6.613-4.134 10.333-2.066 7.026-2.893 19.012-2.893 27.278z" fill="#584940"/><path fill-rule="evenodd" clip-rule="evenodd" d="M371.581 225.043c0 4.96-5.786 11.16-8.679 14.053-9.093 8.266-17.359 7.439-28.105 5.373-9.093-2.067-7.44-9.506-1.24-9.506 5.786 0 19.426 8.266 28.932-9.093 4.546-7.853 9.092-2.893 9.092-.827z" fill="#584940"/></svg>