<svg width="32" height="32" fill="none" xmlns="http://www.w3.org/2000/svg"><path fill-rule="evenodd" clip-rule="evenodd" d="M32 16c0 8.837-7.163 16-16 16-3.149 0-6.085-.91-8.56-2.48L0 32l2.48-7.44A15.925 15.925 0 010 16C0 7.163 7.163 0 16 0s16 7.163 16 16zm-10.61 9.11c-7.704.568-14.866-6.498-13.868-14.872.312-2.618 3.338-4.088 4.88-3.04.229.155.866 2.242.82 3.691-.011.318-.203.593-.47.764l-.92.585c-.425.27-.626.788-.472 1.267 1.243 3.874 3.34 6.408 7.17 7.6.475.147.983-.064 1.243-.49l.392-.639a1.098 1.098 0 011.284-.48c1.439.487 2.867 1.156 3.023 1.571.514 1.57-1.033 3.893-3.082 4.044z" fill="#5D5048"/></svg>