<svg width="33" height="32" fill="none" xmlns="http://www.w3.org/2000/svg"><path d="M23.533 29.667A20.558 20.558 0 013 9.133a6.133 6.133 0 018.121-5.801 1.325 1.325 0 01.863.961l1.825 7.951a1.334 1.334 0 01-.337 1.221c-.18.19-.183.194-1.84 1.059a13.24 13.24 0 006.507 6.512c.869-1.657.872-1.661 1.066-1.843a1.333 1.333 0 011.222-.337l7.95 1.825a1.333 1.333 0 01.963.863 6.066 6.066 0 01.327 1.99 6.14 6.14 0 01-6.134 6.133zm-14.4-24a3.467 3.467 0 00-3.466 3.466A17.888 17.888 0 0023.533 27a3.467 3.467 0 003.439-3.904l-6.163-1.415-.097.188c-.093.18-.19.364-.283.534l-.008.016c-.485.933-.868 1.658-1.6 1.658a1.524 1.524 0 01-.568-.124 15.797 15.797 0 01-9.573-9.608c-.477-1.045.43-1.52 1.58-2.121l.715-.375L9.57 5.695a3.201 3.201 0 00-.438-.028zm19.2 10.666A1.333 1.333 0 0127 15a9.344 9.344 0 00-9.333-9.333 1.333 1.333 0 110-2.667 12.013 12.013 0 0112 12 1.334 1.334 0 01-1.334 1.333zm-5.333 0A1.333 1.333 0 0121.667 15a4 4 0 00-4-4 1.333 1.333 0 010-2.667A6.675 6.675 0 0124.333 15 1.333 1.333 0 0123 16.333z" fill="#5D5048"/></svg>