<svg width="34" height="34" fill="none" xmlns="http://www.w3.org/2000/svg"><path d="M33.025 31.762L20.35 23.625A11.108 11.108 0 0022.4 17.2C22.4 11.025 17.375 6 11.2 6 5.025 6 0 11.025 0 17.2c0 6.175 5.025 11.2 11.2 11.2 3.438 0 6.525-1.563 8.575-4.012l12.75 8.174a.45.45 0 00.25.076c.15 0 .3-.075.4-.213.138-.237.075-.525-.15-.662zM11.2 27.45C5.55 27.45.938 22.85.938 17.188c0-5.65 4.6-10.263 10.262-10.263 5.663 0 10.262 4.6 10.262 10.262 0 5.663-4.612 10.263-10.262 10.263z" fill="#4E4E50"/></svg>