<svg width="34" height="34" viewBox="0 0 34 34" fill="none" xmlns="http://www.w3.org/2000/svg">
<path d="M31.0384 27.2445L20.2772 20.2182C21.3703 18.6424 22.0177 16.7321 22.0177 14.6706C22.0177 9.33881 17.7515 5 12.5088 5C7.26625 5 3 9.33881 3 14.6706C3 20.0023 7.26625 24.3412 12.5088 24.3412C15.4273 24.3412 18.0486 22.992 19.7891 20.8766L30.6139 27.9352C30.6775 27.9784 30.7518 28 30.8261 28C30.9535 28 31.0808 27.9352 31.1657 27.8165C31.2825 27.6115 31.2294 27.3632 31.0384 27.2445ZM12.5088 23.5209C7.71197 23.5209 3.79594 19.549 3.79594 14.6598C3.79594 9.78132 7.70136 5.79869 12.5088 5.79869C17.3163 5.79869 21.2218 9.77053 21.2218 14.6598C21.2218 19.549 17.3057 23.5209 12.5088 23.5209Z" fill="#4E4E50"/>
</svg>
