<svg width="34" height="34" viewBox="0 0 34 34" fill="none" xmlns="http://www.w3.org/2000/svg">
<path d="M27.575 32.75H6.475C6.2125 32.75 6 32.5375 6 32.275V27.75C6 23.3375 9.5875 19.7375 14.0125 19.7375H20.0375C24.45 19.7375 28.0375 23.325 28.0375 27.75V32.275C28.05 32.55 27.8375 32.75 27.575 32.75ZM6.9375 31.8125H27.1V27.7625C27.1 23.8625 23.925 20.6875 20.0375 20.6875H14.0125C10.1125 20.6875 6.9375 23.8625 6.9375 27.7625V31.8125Z" fill="#4E4E50"/>
<path d="M17.025 18.5375C13.2875 18.5375 10.25 15.5 10.25 11.7625C10.25 8.025 13.2875 5 17.025 5C20.7625 5 23.8 8.0375 23.8 11.775C23.8 15.5125 20.7625 18.5375 17.025 18.5375ZM17.025 5.9375C13.8125 5.9375 11.1875 8.55 11.1875 11.775C11.1875 15 13.8 17.6125 17.025 17.6125C20.25 17.6125 22.8625 15 22.8625 11.775C22.8625 8.55 20.2375 5.9375 17.025 5.9375Z" fill="#4E4E50"/>
</svg>
