<svg width="34" height="34" viewBox="0 0 34 34" fill="none" xmlns="http://www.w3.org/2000/svg">
<path d="M30.243 33.428C30.6019 33.0692 30.8037 32.5869 30.8037 32.071L30.7028 11.5813C30.7028 10.5383 29.8393 9.68598 28.7963 9.68598H25.0056V9.65234C24.0972 6.3215 21.0579 4 17.6037 4C14.1495 4 11.1103 6.3215 10.2019 9.65234V9.68598H5.90654C4.85234 9.68598 4 10.5383 4 11.5925V32.0935C4 33.1477 4.85234 34 5.90654 34H28.8972C29.4019 33.9888 29.8841 33.7981 30.243 33.428ZM17.6037 4.8972C20.5757 4.8972 23.2 6.85981 24.0636 9.68598H11.1439C12.0075 6.85981 14.6318 4.8972 17.6037 4.8972ZM4.85234 11.5813C4.85234 10.9981 5.32336 10.5271 5.90654 10.5271H28.7963C29.3794 10.5271 29.8505 10.9981 29.8505 11.5701L29.9402 32.071C29.9402 32.3514 29.828 32.6206 29.6374 32.8224C29.4467 33.0243 29.1776 33.1364 28.886 33.1364H5.90654C5.32336 33.1364 4.85234 32.6654 4.85234 32.0822V11.5813Z" fill="#4E4E50"/>
</svg>
