<svg width="128" height="115" viewBox="0 0 128 115" fill="none" xmlns="http://www.w3.org/2000/svg">
<g clip-path="url(#clip0_219_3196)">
<path d="M31.5297 1.70496L63.0578 15.1778L94.5858 1.70496L126.303 32.068L112.899 83.1157L63.813 113.479L13.217 82.7358L1.32324 32.257L31.5297 1.70496Z" fill="#D07F05"/>
<path d="M64.002 114.996L12.2733 83.4946L0.00195312 31.6881L31.1524 0.186218L63.058 13.66L94.9637 0.186218L128.002 31.6881L114.22 84.0645L64.002 114.996ZM14.7277 81.5969L64.002 111.581L111.955 81.9768L124.981 32.257L94.3972 3.22271L63.058 16.5065L31.9076 3.22271L3.21142 32.257L14.7277 81.5969Z" fill="#5D5048"/>
<path d="M62.869 36.4323L89.1108 25.8051L105.158 39.4688L96.4737 68.693L63.4353 90.5165C63.4353 90.5165 29.453 69.6421 29.453 68.883C29.453 68.1239 22.4678 38.52 22.4678 38.52L37.0047 25.6151L62.869 36.4323Z" fill="#D07F05"/>
<path d="M63.6244 92.2242L62.8693 91.6553C28.3206 70.4011 28.3205 69.8318 28.3205 68.883C28.1317 67.9341 23.9784 50.2851 21.3353 38.8989L21.1465 38.14L37.0049 24.0973L63.058 35.1035L89.4887 24.4772L107.046 39.2788L97.9843 69.8318L63.6244 92.2242ZM30.9636 68.1241C33.6067 70.0218 51.7306 81.4077 63.6244 88.8087L95.3411 67.7442L103.648 40.0377L88.9223 27.5128L63.058 37.9501L37.5713 27.3238L24.3559 39.0889C29.2645 60.7225 30.586 66.6059 30.9636 68.1241Z" fill="#5D5048"/>
<path d="M31.5297 1.70496L63.0578 15.1778L94.5858 1.70496L126.303 32.068L112.899 83.1157L63.813 113.479L13.217 82.7358L1.32324 32.257L31.5297 1.70496Z" fill="#D07F05"/>
<path d="M64.002 114.996L12.2733 83.4946L0.00195312 31.6881L31.1524 0.186218L63.058 13.66L94.9637 0.186218L128.002 31.6881L114.22 84.0645L64.002 114.996ZM14.7277 81.5969L64.002 111.581L111.955 81.9768L124.981 32.257L94.3972 3.22271L63.058 16.5065L31.9076 3.22271L3.21142 32.257L14.7277 81.5969Z" fill="#5D5048"/>
<path d="M62.87 36.4322L89.1118 25.8049L105.159 39.4687L96.4747 68.6929L63.4363 90.5163C63.4363 90.5163 29.454 69.6419 29.454 68.8829C29.454 68.1238 22.4688 38.5198 22.4688 38.5198L37.0056 25.615L62.87 36.4322Z" fill="#EB971A"/>
<path d="M63.6248 92.0346C63.436 92.0346 63.0585 92.0353 62.8697 91.8455C28.3211 70.5914 28.321 70.0221 28.321 69.0733C28.1322 68.1244 23.9789 50.4753 21.3358 39.0892C21.147 38.5199 21.3357 37.9511 21.7133 37.7614L36.2502 24.8565C36.6278 24.477 37.1941 24.4768 37.7605 24.6666L62.8697 35.2938L88.5452 24.8565C89.1115 24.6668 89.6779 24.6669 90.0555 25.0465L106.103 38.7102C106.48 39.0898 106.669 39.6587 106.48 40.228L97.796 69.4522C97.796 69.8318 97.4183 70.0214 97.2295 70.2111L64.1912 92.0346C64.0024 91.8448 63.8136 92.0346 63.6248 92.0346ZM30.9641 68.1244C33.6071 70.0221 51.731 81.4081 63.6248 88.809L95.3416 67.7445L103.648 40.038L88.9228 27.5131L63.4361 37.7614C63.0585 37.9511 62.6808 37.9511 62.3033 37.7614L37.383 27.3241L24.1677 39.0892C29.265 60.7229 30.5865 66.6063 30.9641 68.1244Z" fill="#5D5048"/>
<path d="M61.2448 15.1035L61.0088 36.5453L63.8404 36.5768L64.0764 15.135L61.2448 15.1035Z" fill="#5D5048"/>
<path d="M32.8688 1.29097L30.1123 1.94312L35.7351 25.9569L38.4916 25.3047L32.8688 1.29097Z" fill="#5D5048"/>
<path d="M2.23755 30.8705L1.39648 33.5887L22.4883 40.1828L23.3293 37.4646L2.23755 30.8705Z" fill="#5D5048"/>
<path d="M92.8104 1.47425L87.1914 25.6826L89.9491 26.3293L95.5681 2.12098L92.8104 1.47425Z" fill="#5D5048"/>
<path d="M125.967 30.2151L104.777 37.7147L105.718 40.3996L126.908 32.8999L125.967 30.2151Z" fill="#5D5048"/>
<path d="M97.2676 67.5571L95.4209 69.7151L112.023 84.07L113.87 81.9121L97.2676 67.5571Z" fill="#5D5048"/>
<path d="M64.9221 90.6013L62.0908 90.66L62.5578 113.428L65.389 113.369L64.9221 90.6013Z" fill="#5D5048"/>
<path d="M28.3776 68.216L12.1895 81.8887L14.0112 84.068L30.1994 70.3953L28.3776 68.216Z" fill="#5D5048"/>
</g>
<defs>
<clipPath id="clip0_219_3196">
<rect width="128" height="115" fill="white"/>
</clipPath>
</defs>
</svg>
