<svg width="30" height="16" viewBox="0 0 30 16" fill="none" xmlns="http://www.w3.org/2000/svg">
<path d="M15.0002 10.9148C15.6699 10.9148 16.3245 10.7163 16.8813 10.3442C17.4381 9.97215 17.8721 9.44334 18.1284 8.82464C18.3847 8.20594 18.4517 7.52513 18.3211 6.86833C18.1904 6.21152 17.868 5.6082 17.3944 5.13467C16.9209 4.66113 16.3176 4.33865 15.6608 4.20801C15.004 4.07736 14.3232 4.14441 13.7045 4.40069C13.0858 4.65696 12.5569 5.09094 12.1849 5.64776C11.8128 6.20458 11.6143 6.85921 11.6143 7.52889C11.6153 8.42659 11.9723 9.28724 12.6071 9.92201C13.2419 10.5568 14.1025 10.9138 15.0002 10.9148ZM15.0002 5.02615C15.4952 5.02615 15.9791 5.17293 16.3907 5.44794C16.8022 5.72294 17.123 6.11382 17.3124 6.57113C17.5019 7.02845 17.5514 7.53167 17.4549 8.01715C17.3583 8.50264 17.1199 8.94858 16.7699 9.2986C16.4199 9.64861 15.9739 9.88697 15.4885 9.98354C15.003 10.0801 14.4998 10.0306 14.0424 9.84113C13.5851 9.6517 13.1943 9.33091 12.9192 8.91934C12.6442 8.50777 12.4975 8.02389 12.4975 7.52889C12.4982 6.86535 12.7621 6.22919 13.2313 5.76C13.7005 5.2908 14.3367 5.02688 15.0002 5.02615Z" fill="#5D5048"/>
<path d="M29.9279 7.28692C29.8799 7.214 25.0362 0 15 0C4.96379 0 0.120058 7.214 0.0721128 7.28692C0.0250599 7.35886 0 7.44296 0 7.52892C0 7.61488 0.0250599 7.69898 0.0721128 7.77092C0.120058 7.84385 4.96354 15.0578 15 15.0578C25.0365 15.0578 29.8799 7.84385 29.9279 7.77092C29.9749 7.69898 30 7.61488 30 7.52892C30 7.44296 29.9749 7.35886 29.9279 7.28692ZM0.985849 7.52892C3.42943 4.45445 6.8355 2.29056 10.6569 1.38486C9.67235 2.07884 8.86896 2.99926 8.31442 4.06859C7.75987 5.13792 7.47041 6.32486 7.47041 7.52943C7.47041 8.734 7.75987 9.92093 8.31442 10.9903C8.86896 12.0596 9.67235 12.98 10.6569 13.674C6.83537 12.768 3.42928 10.6038 0.985849 7.52892ZM15 0.883202C16.3144 0.883202 17.5993 1.27297 18.6922 2.00321C19.785 2.73345 20.6368 3.77137 21.1398 4.98571C21.6428 6.20006 21.7745 7.53629 21.518 8.82544C21.2616 10.1146 20.6287 11.2987 19.6992 12.2282C18.7698 13.1576 17.5857 13.7905 16.2965 14.0469C15.0074 14.3034 13.6711 14.1718 12.4568 13.6688C11.2424 13.1658 10.2045 12.314 9.47429 11.2211C8.74404 10.1282 8.35428 8.84332 8.35428 7.52892C8.35635 5.767 9.05719 4.07784 10.3031 2.83197C11.5489 1.58611 13.2381 0.885273 15 0.883202ZM19.3431 13.673C20.3277 12.979 21.131 12.0586 21.6856 10.9893C22.2401 9.91992 22.5296 8.73299 22.5296 7.52842C22.5296 6.32385 22.2401 5.13691 21.6856 4.06758C21.131 2.99825 20.3277 2.07784 19.3431 1.38385C23.1646 2.28982 26.5707 4.45407 29.0142 7.52892C26.5706 10.6034 23.1645 12.7673 19.3431 13.673Z" fill="#5D5048"/>
</svg>
