<svg width="34" height="34" viewBox="0 0 34 34" fill="none" xmlns="http://www.w3.org/2000/svg">
<rect x="0.5" y="0.5" width="33" height="33" rx="16.5" stroke="#5D5048"/>
<path d="M20.1975 10C19.0173 10.0009 17.8787 10.4173 16.9987 11.1698C16.1838 10.4727 15.1447 10.0626 14.0531 10.0073C12.9615 9.95209 11.883 10.255 10.9958 10.866C10.1086 11.477 9.46598 12.3595 9.17418 13.3674C8.88238 14.3754 8.95889 15.4485 9.39107 16.4092C9.39107 16.4092 9.51497 16.6674 9.58443 16.7899C12.1929 21.2712 16.5484 23.822 16.7338 23.929C16.8142 23.9755 16.9063 24 17.0001 24C17.094 24 17.1861 23.9755 17.2665 23.929C17.4504 23.8229 21.8059 21.2712 24.4182 16.7857C24.4853 16.6674 24.6092 16.4092 24.6142 16.3985C24.926 15.6998 25.0519 14.9381 24.9806 14.1815C24.9093 13.4249 24.643 12.697 24.2056 12.063C23.7681 11.4291 23.1733 10.9088 22.4741 10.5487C21.775 10.1887 20.9935 10.0002 20.1996 10H20.1975ZM23.6704 16C23.6704 16.0023 23.5677 16.2166 23.5141 16.3098C21.3998 19.9406 17.9743 22.2982 16.9987 22.9209C16.023 22.2985 12.5979 19.9414 10.4868 16.3146C10.432 16.2185 10.3332 16.0107 10.3332 16.0107C9.98147 15.2237 9.93375 14.3427 10.1985 13.5251C10.4633 12.7075 11.0232 12.0067 11.7784 11.5479C12.5335 11.089 13.4345 10.9021 14.3205 11.0205C15.2064 11.1388 16.0194 11.5548 16.6143 12.194C16.6638 12.244 16.7234 12.2837 16.7895 12.3109C16.8556 12.3381 16.9267 12.3521 16.9987 12.3521C17.0706 12.3521 17.1418 12.3381 17.2079 12.3109C17.2739 12.2837 17.3335 12.244 17.383 12.194C17.8911 11.6479 18.5607 11.2625 19.3029 11.0888C20.0451 10.9152 20.825 10.9615 21.5391 11.2216C22.2532 11.4818 22.8678 11.9434 23.3014 12.5455C23.735 13.1475 23.9672 13.8614 23.967 14.5925C23.9684 15.0761 23.8671 15.555 23.6692 16H23.6704Z" fill="#5D5048"/>
</svg>
