<svg width="18" height="18" viewBox="0 0 18 18" fill="none" xmlns="http://www.w3.org/2000/svg">
<path d="M17.7468 11.4149C17.7468 11.1881 17.6963 10.964 17.5989 10.7591C17.5015 10.5543 17.3596 10.3737 17.1836 10.2305C17.4825 10.0684 17.7188 9.81134 17.8552 9.49989C17.9916 9.18844 18.0203 8.8404 17.9367 8.51083C17.8531 8.18125 17.6621 7.88894 17.3937 7.68014C17.1254 7.47133 16.7951 7.35794 16.4551 7.3579H11.1894V1.74898C11.1915 1.52007 11.1483 1.29301 11.0622 1.08091C10.9761 0.868816 10.8488 0.675882 10.6877 0.51326C10.5265 0.350638 10.3348 0.22155 10.1235 0.133454C9.91224 0.0453581 9.68559 0 9.45668 0C9.22776 0 9.00112 0.0453581 8.78983 0.133454C8.57855 0.22155 8.38681 0.350638 8.2257 0.51326C8.06459 0.675882 7.9373 0.868816 7.85118 1.08091C7.76506 1.29301 7.72183 1.52007 7.72396 1.74898V2.78956C7.72531 3.41828 7.52477 4.03083 7.15186 4.53703L5.0831 7.3579H0.264721C0.194513 7.3579 0.12718 7.38579 0.077535 7.43543C0.0278901 7.48508 0 7.55241 0 7.62262V17.7353C4.00778e-05 17.8055 0.0279431 17.8728 0.0775793 17.9224C0.127216 17.9721 0.194525 18 0.264721 18H15.744C16.0596 18.0003 16.3677 17.9029 16.6257 17.721C16.8838 17.5392 17.0791 17.2818 17.185 16.9844C17.2908 16.687 17.3019 16.3641 17.2168 16.0601C17.1316 15.7562 16.9544 15.486 16.7095 15.2868C16.9303 15.1673 17.1182 14.9952 17.2566 14.7857C17.395 14.5763 17.4797 14.3359 17.5031 14.086C17.5266 13.836 17.488 13.5841 17.391 13.3526C17.2939 13.1211 17.1413 12.917 16.9466 12.7585C17.1885 12.6273 17.3905 12.4332 17.5313 12.1967C17.6721 11.9602 17.7466 11.6902 17.7468 11.4149ZM0.529443 7.88734H4.95301V17.4706H0.529443V7.88734ZM16.2179 12.4142H15.9805C15.9103 12.4142 15.843 12.4421 15.7934 12.4918C15.7437 12.5414 15.7158 12.6087 15.7158 12.6789C15.7158 12.7492 15.7437 12.8165 15.7934 12.8661C15.843 12.9158 15.9103 12.9437 15.9805 12.9437C16.1128 12.942 16.2441 12.9667 16.3668 13.0162C16.4895 13.0657 16.6011 13.139 16.6952 13.232C16.7893 13.3249 16.864 13.4357 16.915 13.5577C16.966 13.6798 16.9923 13.8107 16.9923 13.943C16.9923 14.0753 16.966 14.2063 16.915 14.3283C16.864 14.4504 16.7893 14.5611 16.6952 14.6541C16.6011 14.747 16.4895 14.8204 16.3668 14.8699C16.2441 14.9194 16.1128 14.944 15.9805 14.9424H15.7435C15.6733 14.9424 15.606 14.9703 15.5563 15.0199C15.5067 15.0696 15.4788 15.1369 15.4788 15.2071C15.4788 15.2773 15.5067 15.3447 15.5563 15.3943C15.606 15.4439 15.6733 15.4718 15.7435 15.4718C16.0064 15.4751 16.2575 15.5818 16.4423 15.7688C16.627 15.9559 16.7306 16.2083 16.7306 16.4712C16.7306 16.7341 16.627 16.9865 16.4423 17.1735C16.2575 17.3606 16.0064 17.4673 15.7435 17.4706H5.48245V7.7093L7.5792 4.8503C8.01897 4.25343 8.25547 3.53111 8.25386 2.78971V1.74898C8.25208 1.58983 8.28188 1.43191 8.34155 1.28435C8.40122 1.1368 8.48957 1.00255 8.60148 0.889377C8.71339 0.776204 8.84664 0.686356 8.99352 0.625036C9.14039 0.563715 9.29797 0.532141 9.45713 0.532141C9.61629 0.532141 9.77387 0.563715 9.92075 0.625036C10.0676 0.686356 10.2009 0.776204 10.3128 0.889377C10.4247 1.00255 10.513 1.1368 10.5727 1.28435C10.6324 1.43191 10.6622 1.58983 10.6604 1.74898V7.62262C10.6604 7.69283 10.6883 7.76016 10.7379 7.8098C10.7876 7.85945 10.8549 7.88734 10.9251 7.88734H16.4555C16.7185 7.89057 16.9695 7.99729 17.1543 8.18435C17.3391 8.37142 17.4427 8.62376 17.4427 8.8867C17.4427 9.14964 17.3391 9.40198 17.1543 9.58905C16.9695 9.77611 16.7185 9.88283 16.4555 9.88606H16.2183C16.1481 9.88606 16.0808 9.91395 16.0312 9.9636C15.9815 10.0132 15.9536 10.0806 15.9536 10.1508C15.9536 10.221 15.9815 10.2883 16.0312 10.338C16.0808 10.3876 16.1481 10.4155 16.2183 10.4155C16.3506 10.4139 16.4819 10.4385 16.6046 10.488C16.7272 10.5375 16.8389 10.6109 16.933 10.7038C17.0271 10.7968 17.1018 10.9075 17.1528 11.0296C17.2038 11.1516 17.2301 11.2826 17.2301 11.4149C17.2301 11.5471 17.2038 11.6781 17.1528 11.8002C17.1018 11.9222 17.0271 12.0329 16.933 12.1259C16.8389 12.2189 16.7272 12.2922 16.6046 12.3417C16.4819 12.3912 16.3506 12.4159 16.2183 12.4142H16.2179Z" fill="#5D5048"/>
<path d="M2.74125 13.9612C2.48455 13.9612 2.23362 14.0373 2.02018 14.1799C1.80674 14.3225 1.64039 14.5252 1.54216 14.7624C1.44392 14.9995 1.41822 15.2605 1.4683 15.5123C1.51838 15.764 1.64199 15.9953 1.8235 16.1768C2.00502 16.3583 2.23628 16.4819 2.48804 16.532C2.73981 16.5821 3.00077 16.5564 3.23793 16.4582C3.47509 16.3599 3.67779 16.1936 3.82041 15.9801C3.96302 15.7667 4.03914 15.5158 4.03914 15.2591C4.03874 14.915 3.90187 14.5851 3.65856 14.3418C3.41524 14.0985 3.08535 13.9616 2.74125 13.9612ZM2.74125 16.0275C2.58927 16.0275 2.44069 15.9825 2.31432 15.898C2.18795 15.8136 2.08946 15.6936 2.0313 15.5531C1.97314 15.4127 1.95792 15.2582 1.98757 15.1092C2.01722 14.9601 2.09041 14.8232 2.19788 14.7157C2.30535 14.6082 2.44227 14.535 2.59133 14.5054C2.7404 14.4757 2.89491 14.491 3.03532 14.5491C3.17574 14.6073 3.29575 14.7058 3.38019 14.8321C3.46463 14.9585 3.5097 15.1071 3.5097 15.2591C3.50934 15.4627 3.42825 15.6579 3.2842 15.8019C3.14015 15.9459 2.9449 16.0268 2.74125 16.0271V16.0275Z" fill="#5D5048"/>
</svg>
