<svg width="24" height="22" viewBox="0 0 24 22" fill="none" xmlns="http://www.w3.org/2000/svg">
<path d="M16.7963 0C15.026 0.00139338 13.318 0.655723 11.998 1.83828C10.7757 0.742776 9.21698 0.0983259 7.57964 0.0115189C5.94231 -0.0752881 4.32446 0.400748 2.99369 1.36089C1.66293 2.32103 0.698976 3.70776 0.261273 5.2917C-0.17643 6.87564 -0.0616588 8.5619 0.586603 10.0716C0.586603 10.0716 0.772459 10.4774 0.876644 10.6699C4.78934 17.7119 11.3226 21.7203 11.6007 21.8885C11.7212 21.9614 11.8594 22 12.0002 22C12.141 22 12.2792 21.9614 12.3997 21.8885C12.6757 21.7216 19.2089 17.7119 23.1273 10.6632C23.228 10.4774 23.4138 10.0716 23.4213 10.0548C23.889 8.95688 24.0779 7.75989 23.9709 6.57093C23.8639 5.38198 23.4645 4.23817 22.8083 3.24191C22.1522 2.24565 21.2599 1.42804 20.2112 0.862269C19.1625 0.296501 17.9903 0.000236436 16.7994 0H16.7963ZM22.0056 9.42857C22.0056 9.43211 21.8515 9.76888 21.7711 9.91535C18.5997 15.6209 13.4615 19.3258 11.998 20.3042C10.5346 19.3262 5.3968 15.6222 2.23017 9.92288C2.14806 9.77197 1.99973 9.44538 1.99973 9.44538C1.47221 8.20867 1.40062 6.82422 1.79776 5.53946C2.19489 4.2547 3.03487 3.15339 4.16755 2.43235C5.30024 1.71131 6.65181 1.41755 7.98069 1.60357C9.30957 1.78959 10.5292 2.44326 11.4215 3.44776C11.4957 3.52623 11.5851 3.58872 11.6842 3.63143C11.7834 3.67413 11.8901 3.69616 11.998 3.69616C12.1059 3.69616 12.2127 3.67413 12.3118 3.63143C12.4109 3.58872 12.5003 3.52623 12.5746 3.44776C13.3367 2.58961 14.341 1.98393 15.4543 1.71102C16.5677 1.43812 17.7375 1.51089 18.8087 1.91968C19.8798 2.32847 20.8017 3.05398 21.4521 4C22.1025 4.94602 22.4507 6.06787 22.4506 7.2168C22.4526 7.97678 22.3006 8.72925 22.0038 9.42857H22.0056Z" fill="#A09CCD"/>
</svg>
