<svg width="52" height="52" viewBox="0 0 52 52" fill="none" xmlns="http://www.w3.org/2000/svg">
<path d="M37.6667 51H14.3333C7 51 1 45 1 37.6667V14.3333C1 7 7 1 14.3333 1H37.6667C45 1 51 7 51 14.3333V37.6667C51 45 45 51 37.6667 51Z" stroke="#4E4E50" stroke-miterlimit="10" stroke-linecap="round" stroke-linejoin="round"/>
<path d="M25.9997 37.6666C32.443 37.6666 37.6663 32.4433 37.6663 26C37.6663 19.5567 32.443 14.3333 25.9997 14.3333C19.5564 14.3333 14.333 19.5567 14.333 26C14.333 32.4433 19.5564 37.6666 25.9997 37.6666Z" stroke="#4E4E50" stroke-miterlimit="10" stroke-linecap="round" stroke-linejoin="round"/>
<path d="M39.3337 12.6666C40.2541 12.6666 41.0003 11.9205 41.0003 11C41.0003 10.0795 40.2541 9.33331 39.3337 9.33331C38.4132 9.33331 37.667 10.0795 37.667 11C37.667 11.9205 38.4132 12.6666 39.3337 12.6666Z" stroke="#4E4E50" stroke-miterlimit="10" stroke-linecap="round" stroke-linejoin="round"/>
</svg>
