<svg width="509" height="44" viewBox="0 0 509 44" fill="none" xmlns="http://www.w3.org/2000/svg">
<path d="M16.5931 33.1214C16.643 33.1214 17.0924 33.1214 17.9412 33.1214C18.79 33.0723 19.8385 33.0477 21.0867 33.0477C22.335 32.9986 23.5582 32.974 24.7565 32.974C26.0048 32.9249 27.0533 32.9004 27.9021 32.9004C28.7509 32.8513 29.1753 32.8267 29.1753 32.8267C29.1753 32.8267 29.4499 32.8267 29.9991 32.8267C30.5483 32.8267 31.1974 32.9249 31.9463 33.1214C32.6953 33.2687 33.3443 33.6124 33.8936 34.1526C34.4927 34.6927 34.8173 35.5275 34.8672 36.6569C34.9171 37.7372 34.5926 38.5966 33.8936 39.2349C33.2445 39.8242 32.4456 40.2416 31.497 40.4871C30.5982 40.6835 29.7744 40.8063 29.0255 40.8554C28.3265 40.9045 27.977 40.9291 27.977 40.9291C27.977 40.9291 27.4527 40.9782 26.4042 41.0764C25.4056 41.1255 24.0825 41.2483 22.4348 41.4447C20.7872 41.6411 18.9897 41.9112 17.0425 42.2549C15.0952 42.5495 13.2229 42.9424 11.4255 43.4334C9.628 43.9245 8.13013 44.0963 6.93183 43.949C5.78346 43.8508 4.88473 43.6053 4.23566 43.2125C3.58658 42.7705 3.11225 42.3286 2.81267 41.8866C2.56303 41.3956 2.43821 41.0764 2.43821 40.9291C2.38828 40.5853 2.48814 40.1679 2.73778 39.6769C2.98743 39.1367 3.46175 38.7684 4.16076 38.572C4.41041 38.5229 4.53523 37.8355 4.53523 36.5096C4.53523 35.1347 4.43537 33.3914 4.23566 31.2799C4.08587 29.1193 3.86119 26.7868 3.56161 24.2825C3.26204 21.7781 2.91253 19.2983 2.5131 16.843C2.1636 14.3878 1.81409 12.2026 1.46459 10.2875C1.11508 8.37241 0.76558 6.94837 0.416076 6.01537C-0.0832152 4.59132 -0.133144 3.48646 0.266289 2.70078C0.665722 1.9151 1.21494 1.35039 1.91395 1.00665C2.66289 0.613813 3.33693 0.368286 3.93608 0.270077C4.58516 0.171869 4.9097 0.122764 4.9097 0.122764C4.9097 0.122764 5.23424 0.0982117 5.88332 0.0491043C6.58233 -0.0491045 7.38119 -1.09758e-07 8.27992 0.196421C9.22857 0.343734 10.1023 0.761127 10.9012 1.4486C11.75 2.08696 12.3491 3.16728 12.6986 4.68953C13.148 6.70284 13.6723 9.08444 14.2714 11.8343C14.9205 14.5351 15.4697 17.6533 15.9191 21.1888C16.4184 24.7244 16.643 28.7019 16.5931 33.1214Z" fill="#E8E6E2"/>
<path d="M38.9343 39.6769C38.7845 38.0073 38.6846 35.9204 38.6347 33.416C38.5848 30.8625 38.5598 28.1372 38.5598 25.24C38.5598 22.3428 38.5848 19.5438 38.6347 16.843C38.7345 14.0932 38.8344 11.6625 38.9343 9.55094C39.0341 7.43942 39.134 5.91716 39.2338 4.98416C39.3836 3.80564 39.808 2.92175 40.507 2.33249C41.206 1.69412 41.9799 1.25218 42.8287 1.00665C43.7275 0.761129 44.4764 0.638365 45.0755 0.638365C45.7246 0.58926 46.0492 0.564708 46.0492 0.564708C46.0492 0.564708 46.3487 0.613813 46.9479 0.712021C47.597 0.761126 48.296 0.883888 49.0449 1.08031C49.7939 1.27673 50.3181 1.62046 50.6177 2.11152C51.2668 3.09362 51.5663 4.05117 51.5164 4.98416C51.5164 5.86806 51.4665 7.02202 51.3666 8.44607C51.067 12.129 50.8923 15.7382 50.8424 19.2737C50.7924 22.8093 50.7924 26.0257 50.8424 28.9229C50.8923 31.8201 50.9422 34.128 50.9922 35.8467C51.092 37.5654 51.1419 38.4247 51.1419 38.4247C51.1419 38.4247 51.117 38.6948 51.067 39.2349C51.067 39.726 50.9173 40.2907 50.6177 40.9291C50.3181 41.5674 49.7439 42.1567 48.8951 42.6969C48.0463 43.1879 46.7981 43.4334 45.1504 43.4334C43.5028 43.4334 42.2296 43.2616 41.3309 42.9178C40.4821 42.525 39.8829 42.083 39.5334 41.592C39.2338 41.0518 39.0591 40.6099 39.0092 40.2662C38.9592 39.8733 38.9343 39.6769 38.9343 39.6769Z" fill="#E8E6E2"/>
<path d="M67.6496 8.44607C67.0005 8.54428 66.0768 8.61794 64.8785 8.66704C63.6802 8.66704 62.4569 8.59338 61.2087 8.44607C59.9605 8.29876 58.887 8.02868 57.9883 7.63584C57.0896 7.19389 56.5903 6.55553 56.4904 5.72074C56.4405 4.88595 56.6901 4.22303 57.2393 3.73198C57.8385 3.24093 58.5375 2.87265 59.3364 2.62712C60.1352 2.33249 60.8342 2.16062 61.4334 2.11152C62.0825 2.01331 62.407 1.9642 62.407 1.9642L83.3772 0.0491043C83.3772 0.0491043 83.7268 0.0491043 84.4258 0.0491043C85.1248 -1.09758e-07 85.9236 0.0245518 86.8224 0.122764C87.771 0.220972 88.6198 0.466499 89.3687 0.85934C90.1177 1.20307 90.5171 1.76778 90.567 2.55346C90.6669 3.33914 90.4173 4.00206 89.8181 4.54222C89.2689 5.03327 88.5948 5.45066 87.796 5.7944C86.9971 6.08903 86.2981 6.31 85.699 6.45731C85.0998 6.55553 84.8002 6.60463 84.8002 6.60463L80.007 7.34121C80.2067 8.56883 80.4314 10.3121 80.6811 12.5709C80.9307 14.7806 81.1804 17.2359 81.43 19.9367C81.6797 22.6374 81.9043 25.2891 82.1041 27.8917C82.3038 30.4942 82.4536 32.8267 82.5534 34.8891C82.7032 36.9516 82.7781 38.4247 82.7781 39.3086C82.7781 40.438 82.4536 41.2974 81.8045 41.8866C81.2053 42.4268 80.4814 42.8196 79.6326 43.0651C78.8337 43.2616 78.1097 43.3843 77.4606 43.4334C76.8615 43.4334 76.5619 43.4334 76.5619 43.4334C76.5619 43.4334 76.2374 43.4334 75.5883 43.4334C74.9392 43.3843 74.1903 43.1879 73.3415 42.8442C72.5426 42.5004 71.8187 41.8621 71.1696 40.9291C70.5704 39.9961 70.2709 38.5966 70.2709 36.7306C70.2709 35.061 70.171 33.0232 69.9713 30.617C69.8215 28.2109 69.6218 25.7311 69.3721 23.1776C69.1225 20.575 68.8479 18.1689 68.5483 15.9591C68.2987 13.7494 68.074 11.9571 67.8743 10.5821C67.7245 9.15809 67.6496 8.44607 67.6496 8.44607Z" fill="#E8E6E2"/>
<path d="M104.584 8.44607C103.935 8.54428 103.012 8.61794 101.813 8.66704C100.615 8.66704 99.3918 8.59338 98.1436 8.44607C96.8954 8.29876 95.8219 8.02868 94.9232 7.63584C94.0244 7.19389 93.5251 6.55553 93.4253 5.72074C93.3754 4.88595 93.625 4.22303 94.1742 3.73198C94.7734 3.24093 95.4724 2.87265 96.2712 2.62712C97.0701 2.33249 97.7691 2.16062 98.3683 2.11152C99.0173 2.01331 99.3419 1.9642 99.3419 1.9642L120.312 0.0491043C120.312 0.0491043 120.662 0.0491043 121.361 0.0491043C122.06 -1.09758e-07 122.859 0.0245518 123.757 0.122764C124.706 0.220972 125.555 0.466499 126.304 0.85934C127.053 1.20307 127.452 1.76778 127.502 2.55346C127.602 3.33914 127.352 4.00206 126.753 4.54222C126.204 5.03327 125.53 5.45066 124.731 5.7944C123.932 6.08903 123.233 6.31 122.634 6.45731C122.035 6.55553 121.735 6.60463 121.735 6.60463L116.942 7.34121C117.142 8.56883 117.366 10.3121 117.616 12.5709C117.866 14.7806 118.115 17.2359 118.365 19.9367C118.615 22.6374 118.839 25.2891 119.039 27.8917C119.239 30.4942 119.388 32.8267 119.488 34.8891C119.638 36.9516 119.713 38.4247 119.713 39.3086C119.713 40.438 119.388 41.2974 118.739 41.8866C118.14 42.4268 117.416 42.8196 116.567 43.0651C115.769 43.2616 115.045 43.3843 114.396 43.4334C113.796 43.4334 113.497 43.4334 113.497 43.4334C113.497 43.4334 113.172 43.4334 112.523 43.4334C111.874 43.3843 111.125 43.1879 110.276 42.8442C109.478 42.5004 108.754 41.8621 108.104 40.9291C107.505 39.9961 107.206 38.5966 107.206 36.7306C107.206 35.061 107.106 33.0232 106.906 30.617C106.756 28.2109 106.557 25.7311 106.307 23.1776C106.057 20.575 105.783 18.1689 105.483 15.9591C105.234 13.7494 105.009 11.9571 104.809 10.5821C104.659 9.15809 104.584 8.44607 104.584 8.44607Z" fill="#E8E6E2"/>
<path d="M147.511 33.1214C147.561 33.1214 148.01 33.1214 148.859 33.1214C149.708 33.0723 150.756 33.0477 152.004 33.0477C153.253 32.9986 154.476 32.974 155.674 32.974C156.922 32.9249 157.971 32.9004 158.82 32.9004C159.669 32.8513 160.093 32.8267 160.093 32.8267C160.093 32.8267 160.368 32.8267 160.917 32.8267C161.466 32.8267 162.115 32.9249 162.864 33.1214C163.613 33.2687 164.262 33.6124 164.811 34.1526C165.41 34.6927 165.735 35.5275 165.785 36.6569C165.835 37.7372 165.51 38.5966 164.811 39.2349C164.162 39.8242 163.363 40.2416 162.415 40.4871C161.516 40.6835 160.692 40.8063 159.943 40.8554C159.244 40.9045 158.895 40.9291 158.895 40.9291C158.895 40.9291 158.37 40.9782 157.322 41.0764C156.323 41.1255 155 41.2483 153.353 41.4447C151.705 41.6411 149.907 41.9112 147.96 42.2549C146.013 42.5495 144.141 42.9424 142.343 43.4334C140.546 43.9245 139.048 44.0963 137.85 43.949C136.701 43.8508 135.802 43.6053 135.153 43.2125C134.504 42.7705 134.03 42.3286 133.73 41.8866C133.481 41.3956 133.356 41.0764 133.356 40.9291C133.306 40.5853 133.406 40.1679 133.656 39.6769C133.905 39.1367 134.379 38.7684 135.078 38.572C135.328 38.5229 135.453 37.8355 135.453 36.5096C135.453 35.1347 135.353 33.3914 135.153 31.2799C135.004 29.1193 134.779 26.7868 134.479 24.2825C134.18 21.7781 133.83 19.2983 133.431 16.843C133.081 14.3878 132.732 12.2026 132.382 10.2875C132.033 8.37241 131.683 6.94837 131.334 6.01537C130.835 4.59132 130.785 3.48646 131.184 2.70078C131.583 1.9151 132.133 1.35039 132.832 1.00665C133.581 0.613813 134.255 0.368286 134.854 0.270077C135.503 0.171869 135.827 0.122764 135.827 0.122764C135.827 0.122764 136.152 0.0982117 136.801 0.0491043C137.5 -0.0491045 138.299 -1.09758e-07 139.198 0.196421C140.146 0.343734 141.02 0.761127 141.819 1.4486C142.668 2.08696 143.267 3.16728 143.616 4.68953C144.066 6.70284 144.59 9.08444 145.189 11.8343C145.838 14.5351 146.387 17.6533 146.837 21.1888C147.336 24.7244 147.561 28.7019 147.511 33.1214Z" fill="#E8E6E2"/>
<path d="M167.53 6.08903C167.53 6.08903 167.48 5.89261 167.38 5.49976C167.281 5.05782 167.306 4.54222 167.455 3.95296C167.655 3.3637 168.104 2.82354 168.803 2.33249C169.552 1.84144 170.726 1.52226 172.323 1.37494C173.921 1.22763 175.719 1.10487 177.716 1.00665C179.763 0.908445 181.71 0.810233 183.558 0.712021C185.455 0.613813 187.003 0.540157 188.201 0.491053C189.399 0.441946 189.998 0.417391 189.998 0.417391C189.998 0.417391 190.323 0.441946 190.972 0.491053C191.671 0.491053 192.47 0.589261 193.369 0.785678C194.317 0.932995 195.166 1.25218 195.915 1.74323C196.664 2.18517 197.113 2.84809 197.263 3.73198C197.413 4.61588 197.238 5.30335 196.739 5.7944C196.24 6.28545 195.64 6.65373 194.941 6.89926C194.242 7.09568 193.618 7.21845 193.069 7.26755C192.52 7.31666 192.245 7.34121 192.245 7.34121L180.262 8.00412C180.262 8.00412 180.337 8.32331 180.487 8.96167C180.637 9.60004 180.786 10.3366 180.936 11.1714C181.136 11.9571 181.261 12.6446 181.311 13.2338C181.361 13.774 181.411 14.486 181.46 15.3699C181.51 16.2047 181.56 16.9658 181.61 17.6533C181.66 18.2916 181.685 18.6108 181.685 18.6108L187.227 18.6108C187.227 18.6108 187.502 18.6354 188.051 18.6845C188.6 18.6845 189.224 18.7827 189.923 18.9791C190.672 19.1264 191.322 19.3719 191.871 19.7157C192.42 20.0594 192.72 20.575 192.769 21.2625C192.819 22.1464 192.47 22.8093 191.721 23.2512C191.022 23.6932 190.273 23.9878 189.474 24.1351C188.725 24.2333 188.251 24.307 188.051 24.3561C187.901 24.3561 187.502 24.3807 186.853 24.4298C186.204 24.4298 185.48 24.4298 184.681 24.4298C183.932 24.4298 183.258 24.4298 182.659 24.4298C182.06 24.4298 181.76 24.4298 181.76 24.4298C181.76 24.4298 181.76 24.7981 181.76 25.5346C181.81 26.2221 181.86 27.0323 181.91 27.9653C181.96 28.8983 181.96 29.7086 181.91 30.396C181.91 31.0344 181.885 31.8201 181.835 32.7531C181.785 33.637 181.735 34.4227 181.685 35.1101C181.635 35.7485 181.61 36.0677 181.61 36.0677L191.721 35.6994C191.721 35.6994 192.045 35.6994 192.695 35.6994C193.344 35.6503 194.118 35.6994 195.016 35.8467C195.915 35.994 196.714 36.2886 197.413 36.7306C198.112 37.1725 198.486 37.8355 198.536 38.7193C198.636 39.6032 198.386 40.3153 197.787 40.8554C197.188 41.3956 196.489 41.7884 195.69 42.0339C194.891 42.2795 194.167 42.4513 193.518 42.5495C192.919 42.5986 192.62 42.6232 192.62 42.6232L176.443 43.4334C176.443 43.4334 176.043 43.4334 175.244 43.4334C174.495 43.4825 173.622 43.4334 172.623 43.2861C171.624 43.0897 170.751 42.7214 170.002 42.1812C169.253 41.592 168.903 40.7081 168.953 39.5296C169.053 37.9582 169.153 35.503 169.253 32.1638C169.353 28.7756 169.303 24.8226 169.103 20.3049C168.903 15.7873 168.379 11.0486 167.53 6.08903Z" fill="#E8E6E2"/>
<path d="M228.928 43.4334C227.081 43.4334 225.683 43.1879 224.734 42.6969C223.835 42.2058 223.236 41.6411 222.936 41.0027C222.637 40.3644 222.487 39.7997 222.487 39.3086C222.487 38.8176 222.487 38.572 222.487 38.572L221.588 6.60463C221.588 6.60463 221.563 6.35911 221.513 5.86805C221.464 5.377 221.563 4.81229 221.813 4.17393C222.063 3.48646 222.587 2.8972 223.386 2.40615C224.185 1.86599 225.433 1.59591 227.13 1.59591C229.377 1.54681 231.075 1.86599 232.223 2.55346C233.372 3.19183 234.121 3.85475 234.47 4.54222C234.869 5.18058 235.069 5.49976 235.069 5.49976L243.682 20.8942C243.682 20.8942 243.882 20.4523 244.281 19.5684C244.73 18.6354 245.255 17.4814 245.854 16.1065C246.503 14.7315 247.152 13.332 247.801 11.908C248.45 10.4839 249.024 9.25631 249.524 8.2251C250.023 7.14479 250.348 6.45732 250.497 6.16268C250.747 5.67163 251.196 5.00872 251.845 4.17393C252.494 3.29004 253.418 2.47981 254.616 1.74323C255.865 1.00665 257.487 0.613812 259.485 0.564708C260.982 0.515603 262.131 0.68747 262.93 1.08031C263.729 1.42405 264.278 1.84144 264.577 2.33249C264.927 2.82354 265.127 3.26549 265.176 3.65833C265.226 4.05117 265.251 4.24759 265.251 4.24759C265.251 4.24759 265.251 4.88595 265.251 6.16268C265.251 7.39031 265.251 9.03533 265.251 11.0977C265.301 13.1602 265.326 15.419 265.326 17.8742C265.326 20.3295 265.326 22.8093 265.326 25.3137C265.326 27.7689 265.326 30.0277 265.326 32.0902C265.376 34.1526 265.401 35.8221 265.401 37.0989C265.401 38.3756 265.401 39.0385 265.401 39.0876C265.401 39.1367 265.376 39.3823 265.326 39.8242C265.326 40.2662 265.152 40.7818 264.802 41.371C264.452 41.9112 263.828 42.4022 262.93 42.8442C262.081 43.237 260.808 43.4334 259.11 43.4334C257.412 43.4334 256.114 43.2616 255.216 42.9178C254.367 42.525 253.768 42.1076 253.418 41.6656C253.069 41.1746 252.869 40.7572 252.819 40.4135C252.769 40.0697 252.744 39.8979 252.744 39.8979C252.744 39.8979 252.744 39.4805 252.744 38.6457C252.744 37.7618 252.744 36.6815 252.744 35.4048C252.794 34.0789 252.819 32.7776 252.819 31.5009C252.869 30.1751 252.894 29.0702 252.894 28.1863C252.894 27.3024 252.894 26.8605 252.894 26.8605L253.493 16.3274L249.599 24.5034C249.599 24.5034 249.449 24.7735 249.149 25.3137C248.9 25.8538 248.4 26.394 247.651 26.9341C246.902 27.4743 245.779 27.7689 244.281 27.818C242.833 27.8671 241.685 27.6707 240.836 27.2288C240.037 26.7377 239.463 26.2712 239.113 25.8293C238.814 25.3382 238.664 25.0927 238.664 25.0927L233.796 16.3274C233.796 16.3274 233.821 16.9167 233.871 18.0952C233.971 19.2246 234.071 20.7223 234.17 22.5883C234.27 24.4052 234.37 26.3449 234.47 28.4073C234.57 30.4206 234.645 32.3357 234.695 34.1526C234.795 35.9204 234.869 37.3444 234.919 38.4247C234.969 39.7505 234.695 40.7818 234.096 41.5183C233.496 42.2058 232.797 42.6969 231.999 42.9915C231.2 43.237 230.476 43.3843 229.827 43.4334C229.227 43.4334 228.928 43.4334 228.928 43.4334Z" fill="#E8E6E2"/>
<path d="M268.827 6.08903C268.827 6.08903 268.777 5.89261 268.677 5.49976C268.577 5.05782 268.602 4.54222 268.752 3.95296C268.952 3.3637 269.401 2.82354 270.1 2.33249C270.849 1.84144 272.022 1.52226 273.62 1.37494C275.218 1.22763 277.015 1.10487 279.012 1.00665C281.06 0.908445 283.007 0.810233 284.854 0.712021C286.752 0.613813 288.299 0.540157 289.498 0.491053C290.696 0.441946 291.295 0.417391 291.295 0.417391C291.295 0.417391 291.62 0.441946 292.269 0.491053C292.968 0.491053 293.767 0.589261 294.665 0.785678C295.614 0.932995 296.463 1.25218 297.212 1.74323C297.961 2.18517 298.41 2.84809 298.56 3.73198C298.71 4.61588 298.535 5.30335 298.035 5.7944C297.536 6.28545 296.937 6.65373 296.238 6.89926C295.539 7.09568 294.915 7.21845 294.366 7.26755C293.816 7.31666 293.542 7.34121 293.542 7.34121L281.559 8.00412C281.559 8.00412 281.634 8.32331 281.784 8.96167C281.933 9.60004 282.083 10.3366 282.233 11.1714C282.433 11.9571 282.557 12.6446 282.607 13.2338C282.657 13.774 282.707 14.486 282.757 15.3699C282.807 16.2047 282.857 16.9658 282.907 17.6533C282.957 18.2916 282.982 18.6108 282.982 18.6108L288.524 18.6108C288.524 18.6108 288.799 18.6354 289.348 18.6845C289.897 18.6845 290.521 18.7827 291.22 18.9791C291.969 19.1264 292.618 19.3719 293.167 19.7157C293.717 20.0594 294.016 20.575 294.066 21.2625C294.116 22.1464 293.767 22.8093 293.018 23.2512C292.319 23.6932 291.57 23.9878 290.771 24.1351C290.022 24.2333 289.548 24.307 289.348 24.3561C289.198 24.3561 288.799 24.3807 288.15 24.4298C287.5 24.4298 286.776 24.4298 285.978 24.4298C285.229 24.4298 284.555 24.4298 283.955 24.4298C283.356 24.4298 283.057 24.4298 283.057 24.4298C283.057 24.4298 283.057 24.7981 283.057 25.5346C283.107 26.2221 283.157 27.0323 283.207 27.9653C283.256 28.8983 283.256 29.7086 283.207 30.396C283.207 31.0344 283.182 31.8201 283.132 32.7531C283.082 33.637 283.032 34.4227 282.982 35.1101C282.932 35.7485 282.907 36.0677 282.907 36.0677L293.018 35.6994C293.018 35.6994 293.342 35.6994 293.991 35.6994C294.64 35.6503 295.414 35.6994 296.313 35.8467C297.212 35.994 298.011 36.2886 298.71 36.7306C299.409 37.1725 299.783 37.8355 299.833 38.7193C299.933 39.6032 299.683 40.3153 299.084 40.8554C298.485 41.3956 297.786 41.7884 296.987 42.0339C296.188 42.2795 295.464 42.4513 294.815 42.5495C294.216 42.5986 293.916 42.6232 293.916 42.6232L277.739 43.4334C277.739 43.4334 277.34 43.4334 276.541 43.4334C275.792 43.4825 274.918 43.4334 273.92 43.2861C272.921 43.0897 272.047 42.7214 271.298 42.1812C270.549 41.592 270.2 40.7081 270.25 39.5296C270.35 37.9582 270.45 35.503 270.549 32.1638C270.649 28.7756 270.599 24.8226 270.4 20.3049C270.2 15.7873 269.676 11.0486 268.827 6.08903Z" fill="#E8E6E2"/>
<path d="M310.77 43.4334C308.922 43.4334 307.524 43.1879 306.576 42.6969C305.677 42.2058 305.078 41.6411 304.778 41.0027C304.479 40.3644 304.329 39.7997 304.329 39.3086C304.329 38.8176 304.329 38.572 304.329 38.572L303.43 6.60463C303.43 6.60463 303.405 6.35911 303.355 5.86805C303.305 5.377 303.405 4.81229 303.655 4.17393C303.905 3.48646 304.429 2.8972 305.228 2.40615C306.026 1.86599 307.275 1.59591 308.972 1.59591C311.219 1.54681 312.917 1.86599 314.065 2.55346C315.213 3.19183 315.962 3.85475 316.312 4.54222C316.711 5.18058 316.911 5.49976 316.911 5.49976L325.524 20.8942C325.524 20.8942 325.724 20.4523 326.123 19.5684C326.572 18.6354 327.097 17.4814 327.696 16.1065C328.345 14.7315 328.994 13.332 329.643 11.908C330.292 10.4839 330.866 9.25631 331.366 8.2251C331.865 7.14479 332.189 6.45732 332.339 6.16268C332.589 5.67163 333.038 5.00872 333.687 4.17393C334.336 3.29004 335.26 2.47981 336.458 1.74323C337.707 1.00665 339.329 0.613812 341.326 0.564708C342.824 0.515603 343.973 0.68747 344.772 1.08031C345.57 1.42405 346.12 1.84144 346.419 2.33249C346.769 2.82354 346.968 3.26549 347.018 3.65833C347.068 4.05117 347.093 4.24759 347.093 4.24759C347.093 4.24759 347.093 4.88595 347.093 6.16268C347.093 7.39031 347.093 9.03533 347.093 11.0977C347.143 13.1602 347.168 15.419 347.168 17.8742C347.168 20.3295 347.168 22.8093 347.168 25.3137C347.168 27.7689 347.168 30.0277 347.168 32.0902C347.218 34.1526 347.243 35.8221 347.243 37.0989C347.243 38.3756 347.243 39.0385 347.243 39.0876C347.243 39.1367 347.218 39.3823 347.168 39.8242C347.168 40.2662 346.993 40.7818 346.644 41.371C346.294 41.9112 345.67 42.4022 344.772 42.8442C343.923 43.237 342.65 43.4334 340.952 43.4334C339.254 43.4334 337.956 43.2616 337.057 42.9178C336.209 42.525 335.61 42.1076 335.26 41.6656C334.911 41.1746 334.711 40.7572 334.661 40.4135C334.611 40.0697 334.586 39.8979 334.586 39.8979C334.586 39.8979 334.586 39.4805 334.586 38.6457C334.586 37.7618 334.586 36.6815 334.586 35.4048C334.636 34.0789 334.661 32.7776 334.661 31.5009C334.711 30.1751 334.736 29.0702 334.736 28.1863C334.736 27.3024 334.736 26.8605 334.736 26.8605L335.335 16.3274L331.44 24.5034C331.44 24.5034 331.291 24.7735 330.991 25.3137C330.741 25.8538 330.242 26.394 329.493 26.9341C328.744 27.4743 327.621 27.7689 326.123 27.818C324.675 27.8671 323.527 27.6707 322.678 27.2288C321.879 26.7377 321.305 26.2712 320.955 25.8293C320.656 25.3382 320.506 25.0927 320.506 25.0927L315.638 16.3274C315.638 16.3274 315.663 16.9167 315.713 18.0952C315.813 19.2246 315.912 20.7223 316.012 22.5883C316.112 24.4052 316.212 26.3449 316.312 28.4073C316.412 30.4206 316.487 32.3357 316.537 34.1526C316.636 35.9204 316.711 37.3444 316.761 38.4247C316.811 39.7505 316.537 40.7818 315.937 41.5183C315.338 42.2058 314.639 42.6969 313.84 42.9915C313.042 43.237 312.318 43.3843 311.668 43.4334C311.069 43.4334 310.77 43.4334 310.77 43.4334Z" fill="#E8E6E2"/>
<path d="M350.894 21.9991C350.894 18.0707 351.592 14.486 352.991 11.2451C354.389 7.95502 356.286 5.35245 358.682 3.43735C361.079 1.47315 363.725 0.491053 366.621 0.491053C368.768 0.491053 370.815 1.05576 372.762 2.18518C374.71 3.26549 376.432 4.8123 377.93 6.82561C379.428 8.78981 380.601 11.0732 381.45 13.6758C382.299 16.2783 382.723 19.0528 382.723 21.9991C382.723 24.9454 382.299 27.7198 381.45 30.3224C380.601 32.9249 379.428 35.2329 377.93 37.2462C376.432 39.2104 374.71 40.7572 372.762 41.8866C370.815 42.9669 368.768 43.5071 366.621 43.5071C363.725 43.5071 361.079 42.5495 358.682 40.6344C356.286 38.6702 354.389 36.0677 352.991 32.8267C351.592 29.5858 350.894 25.9766 350.894 21.9991ZM362.352 21.7044C362.352 24.5525 362.552 27.1797 362.951 29.5858C363.351 31.9428 363.9 33.8334 364.599 35.2574C365.298 36.6324 366.072 37.3199 366.921 37.3199C367.77 37.3199 368.543 36.6324 369.242 35.2574C369.941 33.8334 370.491 31.9428 370.89 29.5858C371.29 27.1797 371.489 24.5525 371.489 21.7044C371.489 18.8072 371.29 16.1801 370.89 13.8231C370.491 11.466 369.941 9.57549 369.242 8.15144C368.543 6.72739 367.77 6.01537 366.921 6.01537C366.072 6.01537 365.298 6.72739 364.599 8.15144C363.9 9.57549 363.351 11.466 362.951 13.8231C362.552 16.1801 362.352 18.8072 362.352 21.7044Z" fill="#E8E6E2"/>
<path d="M390.034 39.4559L386.589 7.34121C386.589 7.34121 386.514 7.19389 386.364 6.89926C386.264 6.60463 386.239 6.21179 386.289 5.72074C386.339 5.22969 386.614 4.71409 387.113 4.17393C387.662 3.63377 388.586 3.14272 389.884 2.70078C391.631 2.06241 393.678 1.54681 396.025 1.15397C398.422 0.712024 400.943 0.589261 403.589 0.785678C406.286 0.982099 408.932 1.76778 411.528 3.14272C413.076 3.9284 414.224 5.05782 414.973 6.53097C415.722 8.00412 416.172 9.57549 416.321 11.2451C416.471 12.9146 416.471 14.5105 416.321 16.0328C416.221 17.5551 416.047 18.8072 415.797 19.7893C415.597 20.7714 415.498 21.2625 415.498 21.2625C415.498 21.2625 415.323 21.6308 414.973 22.3674C414.624 23.1039 413.95 23.9387 412.951 24.8717C412.002 25.7556 410.604 26.4676 408.757 27.0078L419.392 38.2774C419.392 38.2774 419.567 38.4738 419.916 38.8667C420.266 39.2595 420.54 39.7505 420.74 40.3398C420.99 40.88 420.94 41.4447 420.59 42.0339C420.291 42.5741 419.467 43.0406 418.119 43.4334C416.721 43.8263 415.473 43.9245 414.374 43.7281C413.326 43.5316 412.452 43.2125 411.753 42.7705C411.104 42.3286 410.604 41.9112 410.255 41.5183C409.905 41.1255 409.731 40.9291 409.731 40.9291L399.845 28.9229L402.316 39.3086C402.316 39.3086 402.366 39.5296 402.466 39.9715C402.566 40.3644 402.516 40.8309 402.316 41.371C402.117 41.9112 401.617 42.4022 400.818 42.8442C400.019 43.237 398.746 43.4334 396.999 43.4334C395.251 43.4334 393.878 43.237 392.88 42.8442C391.931 42.4513 391.257 41.9848 390.858 41.4447C390.458 40.9045 390.208 40.438 390.109 40.0452C390.059 39.6523 390.034 39.4559 390.034 39.4559ZM397.149 7.26755L398.946 22.0727C398.946 22.0727 399.221 22.0973 399.77 22.1464C400.369 22.1955 401.068 22.1464 401.867 21.9991C402.716 21.8518 403.515 21.508 404.263 20.9679C405.062 20.3786 405.711 19.4947 406.211 18.3162C406.71 17.0886 406.885 15.419 406.735 13.3075C406.585 11.2942 406.186 9.82101 405.537 8.88802C404.888 7.90591 404.089 7.2921 403.14 7.04658C402.191 6.75195 401.193 6.67829 400.144 6.82561C399.096 6.92381 398.097 7.07113 397.149 7.26755Z" fill="#E8E6E2"/>
<path d="M425.91 39.6769C425.76 38.0073 425.66 35.9204 425.61 33.416C425.56 30.8625 425.535 28.1372 425.535 25.24C425.535 22.3428 425.56 19.5438 425.61 16.843C425.71 14.0932 425.81 11.6625 425.91 9.55094C426.009 7.43942 426.109 5.91716 426.209 4.98416C426.359 3.80564 426.783 2.92175 427.482 2.33249C428.181 1.69412 428.955 1.25218 429.804 1.00665C430.703 0.761129 431.452 0.638365 432.051 0.638365C432.7 0.58926 433.024 0.564708 433.024 0.564708C433.024 0.564708 433.324 0.613813 433.923 0.712021C434.572 0.761126 435.271 0.883888 436.02 1.08031C436.769 1.27673 437.293 1.62046 437.593 2.11152C438.242 3.09362 438.542 4.05117 438.492 4.98416C438.492 5.86806 438.442 7.02202 438.342 8.44607C438.042 12.129 437.868 15.7382 437.818 19.2737C437.768 22.8093 437.768 26.0257 437.818 28.9229C437.868 31.8201 437.917 34.128 437.967 35.8467C438.067 37.5654 438.117 38.4247 438.117 38.4247C438.117 38.4247 438.092 38.6948 438.042 39.2349C438.042 39.726 437.893 40.2907 437.593 40.9291C437.293 41.5674 436.719 42.1567 435.87 42.6969C435.022 43.1879 433.773 43.4334 432.126 43.4334C430.478 43.4334 429.205 43.2616 428.306 42.9178C427.457 42.525 426.858 42.083 426.509 41.592C426.209 41.0518 426.034 40.6099 425.984 40.2662C425.934 39.8733 425.91 39.6769 425.91 39.6769Z" fill="#E8E6E2"/>
<path d="M444.14 6.08903C444.14 6.08903 444.09 5.89261 443.99 5.49976C443.89 5.05782 443.915 4.54222 444.065 3.95296C444.265 3.3637 444.714 2.82354 445.413 2.33249C446.162 1.84144 447.335 1.52226 448.933 1.37494C450.531 1.22763 452.328 1.10487 454.325 1.00665C456.372 0.908445 458.32 0.810233 460.167 0.712021C462.064 0.613813 463.612 0.540157 464.81 0.491053C466.009 0.441946 466.608 0.417391 466.608 0.417391C466.608 0.417391 466.932 0.441946 467.581 0.491053C468.28 0.491053 469.079 0.589261 469.978 0.785678C470.927 0.932995 471.775 1.25218 472.524 1.74323C473.273 2.18517 473.723 2.84809 473.873 3.73198C474.022 4.61588 473.848 5.30335 473.348 5.7944C472.849 6.28545 472.25 6.65373 471.551 6.89926C470.852 7.09568 470.228 7.21845 469.678 7.26755C469.129 7.31666 468.855 7.34121 468.855 7.34121L456.872 8.00412C456.872 8.00412 456.947 8.32331 457.096 8.96167C457.246 9.60004 457.396 10.3366 457.546 11.1714C457.745 11.9571 457.87 12.6446 457.92 13.2338C457.97 13.774 458.02 14.486 458.07 15.3699C458.12 16.2047 458.17 16.9658 458.22 17.6533C458.27 18.2916 458.295 18.6108 458.295 18.6108L463.837 18.6108C463.837 18.6108 464.111 18.6354 464.661 18.6845C465.21 18.6845 465.834 18.7827 466.533 18.9791C467.282 19.1264 467.931 19.3719 468.48 19.7157C469.029 20.0594 469.329 20.575 469.379 21.2625C469.429 22.1464 469.079 22.8093 468.33 23.2512C467.631 23.6932 466.882 23.9878 466.084 24.1351C465.335 24.2333 464.86 24.307 464.661 24.3561C464.511 24.3561 464.111 24.3807 463.462 24.4298C462.813 24.4298 462.089 24.4298 461.29 24.4298C460.541 24.4298 459.867 24.4298 459.268 24.4298C458.669 24.4298 458.37 24.4298 458.37 24.4298C458.37 24.4298 458.37 24.7981 458.37 25.5346C458.419 26.2221 458.469 27.0323 458.519 27.9653C458.569 28.8983 458.569 29.7086 458.519 30.396C458.519 31.0344 458.494 31.8201 458.444 32.7531C458.394 33.637 458.345 34.4227 458.295 35.1101C458.245 35.7485 458.22 36.0677 458.22 36.0677L468.33 35.6994C468.33 35.6994 468.655 35.6994 469.304 35.6994C469.953 35.6503 470.727 35.6994 471.626 35.8467C472.524 35.994 473.323 36.2886 474.022 36.7306C474.721 37.1725 475.096 37.8355 475.146 38.7193C475.246 39.6032 474.996 40.3153 474.397 40.8554C473.798 41.3956 473.099 41.7884 472.3 42.0339C471.501 42.2795 470.777 42.4513 470.128 42.5495C469.529 42.5986 469.229 42.6232 469.229 42.6232L453.052 43.4334C453.052 43.4334 452.653 43.4334 451.854 43.4334C451.105 43.4825 450.231 43.4334 449.232 43.2861C448.234 43.0897 447.36 42.7214 446.611 42.1812C445.862 41.592 445.513 40.7081 445.563 39.5296C445.663 37.9582 445.762 35.503 445.862 32.1638C445.962 28.7756 445.912 24.8226 445.712 20.3049C445.513 15.7873 444.988 11.0486 444.14 6.08903Z" fill="#E8E6E2"/>
<path d="M502.559 14.044C500.862 14.044 499.563 13.8476 498.665 13.4548C497.766 13.0128 497.117 12.5218 496.717 11.9816C496.368 11.4415 496.168 10.9504 496.118 10.5085C496.068 10.0174 496.043 9.7228 496.043 9.62459C496.043 9.37907 495.944 8.98623 495.744 8.44607C495.594 7.85681 495.095 7.56218 494.246 7.56218C492.848 7.56218 491.6 7.97957 490.501 8.81436C489.453 9.64915 488.879 10.8768 488.779 12.4972C488.679 14.1177 489.103 15.5172 490.052 16.6957C491.001 17.8742 492.873 18.4881 495.669 18.5372C497.067 18.5372 498.54 18.7336 500.088 19.1264C501.635 19.5193 503.083 20.1576 504.431 21.0415C505.829 21.8763 506.928 23.0303 507.727 24.5034C508.576 25.9275 509 27.7198 509 29.8804C508.95 34.2017 507.777 37.5408 505.48 39.8979C503.183 42.2549 499.364 43.4334 494.021 43.4334C490.476 43.4334 487.63 43.016 485.483 42.1812C483.336 41.2974 481.764 40.2662 480.765 39.0876C479.816 37.9091 479.317 36.8534 479.267 35.9204C479.217 34.9874 479.267 34.0789 479.417 33.195C479.617 32.3111 480.141 31.55 480.99 30.9116C481.888 30.2733 483.311 29.8804 485.259 29.7331C487.256 29.5858 488.679 29.7577 489.528 30.2487C490.376 30.6907 490.901 31.2063 491.1 31.7955C491.35 32.3848 491.475 32.7531 491.475 32.9004C491.475 33.0477 491.525 33.416 491.625 34.0053C491.774 34.5454 492.024 35.0856 492.374 35.6257C492.773 36.1168 493.322 36.3623 494.021 36.3623C495.07 36.3623 495.968 35.9449 496.717 35.1101C497.466 34.2753 497.941 32.9249 498.14 31.059C498.49 27.3761 496.618 25.5346 492.523 25.5346C491.525 25.5346 490.227 25.3873 488.629 25.0927C487.081 24.7489 485.533 24.1597 483.986 23.3249C482.438 22.441 481.14 21.2134 480.091 19.642C479.043 18.0707 478.543 16.0083 478.593 13.4548C478.643 10.9013 479.117 8.81436 480.016 7.19389C480.915 5.52432 482.088 4.24759 483.536 3.3637C485.034 2.4307 486.657 1.76778 488.404 1.37494C490.202 0.9821 491.974 0.761126 493.722 0.712021C496.068 0.662917 498.315 0.932997 500.462 1.52226C502.659 2.11152 504.481 3.01996 505.929 4.24759C507.427 5.42611 508.276 6.97292 508.476 8.88802C508.626 10.3121 508.401 11.3924 507.802 12.129C507.252 12.8164 506.553 13.3075 505.705 13.6021C504.906 13.8476 504.182 13.9949 503.533 14.044C502.884 14.044 502.559 14.044 502.559 14.044Z" fill="#E8E6E2"/>
</svg>
