<svg width="44" height="509" viewBox="0 0 44 509" fill="none" xmlns="http://www.w3.org/2000/svg">
<path d="M33.1214 492.407C33.1214 492.357 33.1214 491.908 33.1214 491.059C33.0723 490.21 33.0477 489.161 33.0477 487.913C32.9986 486.665 32.974 485.442 32.974 484.243C32.9249 482.995 32.9004 481.947 32.9004 481.098C32.8513 480.249 32.8267 479.825 32.8267 479.825C32.8267 479.825 32.8267 479.55 32.8267 479.001C32.8267 478.452 32.9249 477.803 33.1214 477.054C33.2687 476.305 33.6124 475.656 34.1526 475.106C34.6927 474.507 35.5275 474.183 36.6569 474.133C37.7372 474.083 38.5966 474.407 39.2349 475.106C39.8242 475.756 40.2416 476.554 40.4871 477.503C40.6835 478.402 40.8063 479.226 40.8554 479.975C40.9045 480.674 40.9291 481.023 40.9291 481.023C40.9291 481.023 40.9782 481.547 41.0764 482.596C41.1255 483.594 41.2483 484.918 41.4447 486.565C41.6411 488.213 41.9112 490.01 42.2549 491.958C42.5495 493.905 42.9424 495.777 43.4334 497.575C43.9245 499.372 44.0963 500.87 43.949 502.068C43.8508 503.217 43.6053 504.115 43.2125 504.764C42.7705 505.413 42.3286 505.888 41.8866 506.187C41.3956 506.437 41.0764 506.562 40.9291 506.562C40.5853 506.612 40.1679 506.512 39.6769 506.262C39.1367 506.013 38.7684 505.538 38.572 504.839C38.5229 504.59 37.8355 504.465 36.5096 504.465C35.1347 504.465 33.3914 504.565 31.2799 504.764C29.1193 504.914 26.7868 505.139 24.2825 505.438C21.7781 505.738 19.2983 506.087 16.843 506.487C14.3878 506.836 12.2026 507.186 10.2875 507.535C8.37241 507.885 6.94837 508.234 6.01537 508.584C4.59132 509.083 3.48646 509.133 2.70078 508.734C1.9151 508.334 1.35039 507.785 1.00665 507.086C0.613813 506.337 0.368286 505.663 0.270077 505.064C0.171868 504.415 0.122763 504.09 0.122763 504.09C0.122763 504.09 0.0982114 503.766 0.0491041 503.117C-0.0491048 502.418 -4.32401e-07 501.619 0.19642 500.72C0.343733 499.771 0.761127 498.898 1.4486 498.099C2.08696 497.25 3.16728 496.651 4.68953 496.301C6.70284 495.852 9.08444 495.328 11.8343 494.729C14.5351 494.08 17.6533 493.53 21.1888 493.081C24.7244 492.582 28.7019 492.357 33.1214 492.407Z" fill="#E8E6E2"/>
<path d="M39.6769 470.066C38.0073 470.216 35.9204 470.315 33.416 470.365C30.8625 470.415 28.1372 470.44 25.24 470.44C22.3428 470.44 19.5438 470.415 16.843 470.365C14.0932 470.265 11.6625 470.166 9.55093 470.066C7.43942 469.966 5.91716 469.866 4.98416 469.766C3.80564 469.616 2.92175 469.192 2.33249 468.493C1.69412 467.794 1.25218 467.02 1.00665 466.171C0.761127 465.273 0.638363 464.524 0.638363 463.924C0.589258 463.275 0.564706 462.951 0.564706 462.951C0.564706 462.951 0.613811 462.651 0.712019 462.052C0.761124 461.403 0.883886 460.704 1.08031 459.955C1.27673 459.206 1.62046 458.682 2.11151 458.382C3.09362 457.733 4.05117 457.434 4.98416 457.484C5.86805 457.484 7.02202 457.534 8.44607 457.633C12.1289 457.933 15.7382 458.108 19.2737 458.158C22.8093 458.208 26.0257 458.208 28.9229 458.158C31.8201 458.108 34.128 458.058 35.8467 458.008C37.5654 457.908 38.4247 457.858 38.4247 457.858C38.4247 457.858 38.6948 457.883 39.2349 457.933C39.726 457.933 40.2907 458.083 40.9291 458.382C41.5674 458.682 42.1567 459.256 42.6969 460.105C43.1879 460.954 43.4334 462.202 43.4334 463.85C43.4334 465.497 43.2616 466.77 42.9178 467.669C42.525 468.518 42.083 469.117 41.592 469.467C41.0518 469.766 40.6099 469.941 40.2661 469.991C39.8733 470.041 39.6769 470.066 39.6769 470.066Z" fill="#E8E6E2"/>
<path d="M8.44607 441.35C8.54428 442 8.61794 442.923 8.66704 444.121C8.66704 445.32 8.59338 446.543 8.44607 447.791C8.29875 449.04 8.02868 450.113 7.63583 451.012C7.19389 451.91 6.55552 452.41 5.72074 452.51C4.88595 452.56 4.22303 452.31 3.73198 451.761C3.24093 451.162 2.87264 450.462 2.62712 449.664C2.33249 448.865 2.16062 448.166 2.11151 447.567C2.0133 446.918 1.9642 446.593 1.9642 446.593L0.0491007 425.623C0.0491007 425.623 0.0491007 425.273 0.0491006 424.574C-3.83068e-06 423.875 0.0245481 423.076 0.12276 422.178C0.220969 421.229 0.466495 420.38 0.859336 419.631C1.20307 418.882 1.76778 418.483 2.55346 418.433C3.33914 418.333 4.00206 418.583 4.54222 419.182C5.03327 419.731 5.45066 420.405 5.79439 421.204C6.08903 422.003 6.31 422.702 6.45731 423.301C6.55552 423.9 6.60463 424.2 6.60463 424.2L7.3412 428.993C8.56883 428.793 10.3121 428.569 12.5709 428.319C14.7806 428.069 17.2359 427.82 19.9367 427.57C22.6374 427.32 25.2891 427.096 27.8917 426.896C30.4942 426.696 32.8267 426.546 34.8891 426.447C36.9516 426.297 38.4247 426.222 39.3086 426.222C40.438 426.222 41.2974 426.546 41.8866 427.196C42.4268 427.795 42.8196 428.519 43.0651 429.367C43.2616 430.166 43.3843 430.89 43.4334 431.539C43.4334 432.139 43.4334 432.438 43.4334 432.438C43.4334 432.438 43.4334 432.763 43.4334 433.412C43.3843 434.061 43.1879 434.81 42.8442 435.659C42.5004 436.457 41.8621 437.181 40.9291 437.83C39.9961 438.43 38.5966 438.729 36.7306 438.729C35.061 438.729 33.0232 438.829 30.617 439.029C28.2109 439.179 25.7311 439.378 23.1776 439.628C20.575 439.878 18.1689 440.152 15.9591 440.452C13.7494 440.701 11.9571 440.926 10.5821 441.126C9.15809 441.276 8.44607 441.35 8.44607 441.35Z" fill="#E8E6E2"/>
<path d="M8.44607 404.416C8.54428 405.065 8.61793 405.988 8.66704 407.187C8.66704 408.385 8.59338 409.608 8.44607 410.856C8.29875 412.105 8.02867 413.178 7.63583 414.077C7.19389 414.976 6.55552 415.475 5.72074 415.575C4.88595 415.625 4.22303 415.375 3.73198 414.826C3.24093 414.227 2.87264 413.528 2.62712 412.729C2.33249 411.93 2.16062 411.231 2.11151 410.632C2.0133 409.983 1.9642 409.658 1.9642 409.658L0.0490991 388.688C0.0490991 388.688 0.049099 388.338 0.049099 387.639C-5.44516e-06 386.94 0.0245464 386.141 0.122758 385.243C0.220967 384.294 0.466493 383.445 0.859335 382.696C1.20307 381.947 1.76778 381.548 2.55346 381.498C3.33914 381.398 4.00206 381.648 4.54221 382.247C5.03326 382.796 5.45066 383.47 5.79439 384.269C6.08902 385.068 6.31 385.767 6.45731 386.366C6.55552 386.965 6.60463 387.265 6.60463 387.265L7.3412 392.058C8.56883 391.858 10.3121 391.634 12.5709 391.384C14.7806 391.134 17.2359 390.885 19.9367 390.635C22.6374 390.385 25.2891 390.161 27.8917 389.961C30.4942 389.761 32.8267 389.612 34.8891 389.512C36.9516 389.362 38.4247 389.287 39.3086 389.287C40.438 389.287 41.2974 389.612 41.8866 390.261C42.4268 390.86 42.8196 391.584 43.0651 392.433C43.2616 393.231 43.3843 393.955 43.4334 394.604C43.4334 395.204 43.4334 395.503 43.4334 395.503C43.4334 395.503 43.4334 395.828 43.4334 396.477C43.3843 397.126 43.1879 397.875 42.8442 398.724C42.5004 399.522 41.8621 400.246 40.9291 400.896C39.9961 401.495 38.5966 401.794 36.7306 401.794C35.061 401.794 33.0232 401.894 30.617 402.094C28.2109 402.244 25.731 402.443 23.1776 402.693C20.575 402.943 18.1689 403.217 15.9591 403.517C13.7494 403.766 11.9571 403.991 10.5821 404.191C9.15809 404.341 8.44607 404.416 8.44607 404.416Z" fill="#E8E6E2"/>
<path d="M33.1214 361.489C33.1214 361.439 33.1214 360.99 33.1214 360.141C33.0723 359.292 33.0477 358.244 33.0477 356.996C32.9986 355.747 32.974 354.524 32.974 353.326C32.9249 352.078 32.9004 351.029 32.9004 350.18C32.8513 349.331 32.8267 348.907 32.8267 348.907C32.8267 348.907 32.8267 348.632 32.8267 348.083C32.8267 347.534 32.9249 346.885 33.1214 346.136C33.2687 345.387 33.6124 344.738 34.1526 344.189C34.6927 343.59 35.5275 343.265 36.6569 343.215C37.7372 343.165 38.5966 343.49 39.2349 344.189C39.8242 344.838 40.2416 345.637 40.4871 346.585C40.6835 347.484 40.8063 348.308 40.8554 349.057C40.9045 349.756 40.9291 350.105 40.9291 350.105C40.9291 350.105 40.9782 350.63 41.0764 351.678C41.1255 352.677 41.2482 354 41.4447 355.647C41.6411 357.295 41.9112 359.093 42.2549 361.04C42.5495 362.987 42.9424 364.859 43.4334 366.657C43.9245 368.454 44.0963 369.952 43.949 371.15C43.8508 372.299 43.6053 373.198 43.2124 373.847C42.7705 374.496 42.3286 374.97 41.8866 375.27C41.3956 375.519 41.0764 375.644 40.9291 375.644C40.5853 375.694 40.1679 375.594 39.6769 375.344C39.1367 375.095 38.7684 374.621 38.572 373.922C38.5229 373.672 37.8354 373.547 36.5096 373.547C35.1347 373.547 33.3914 373.647 31.2799 373.847C29.1193 373.996 26.7868 374.221 24.2824 374.521C21.7781 374.82 19.2983 375.17 16.843 375.569C14.3878 375.919 12.2026 376.268 10.2875 376.618C8.37241 376.967 6.94836 377.317 6.01536 377.666C4.59132 378.165 3.48645 378.215 2.70077 377.816C1.91509 377.417 1.35039 376.867 1.00665 376.168C0.613807 375.419 0.36828 374.745 0.270072 374.146C0.171863 373.497 0.122758 373.173 0.122758 373.173C0.122758 373.173 0.0982057 372.848 0.0490983 372.199C-0.0491106 371.5 -6.155e-06 370.701 0.196414 369.802C0.343728 368.854 0.761121 367.98 1.44859 367.181C2.08696 366.332 3.16727 365.733 4.68953 365.384C6.70284 364.934 9.08443 364.41 11.8343 363.811C14.5351 363.162 17.6533 362.613 21.1888 362.163C24.7244 361.664 28.7019 361.439 33.1214 361.489Z" fill="#E8E6E2"/>
<path d="M6.08902 341.47C6.08902 341.47 5.8926 341.52 5.49976 341.62C5.05781 341.719 4.54221 341.694 3.95295 341.545C3.36369 341.345 2.82353 340.896 2.33248 340.197C1.84143 339.448 1.52225 338.274 1.37493 336.677C1.22762 335.079 1.10486 333.281 1.00665 331.284C0.908437 329.237 0.810225 327.29 0.712013 325.442C0.613805 323.545 0.540149 321.997 0.491045 320.799C0.441937 319.601 0.417383 319.002 0.417383 319.002C0.417383 319.002 0.441937 318.677 0.491045 318.028C0.491045 317.329 0.589252 316.53 0.78567 315.631C0.932986 314.683 1.25217 313.834 1.74322 313.085C2.18517 312.336 2.84808 311.887 3.73198 311.737C4.61587 311.587 5.30334 311.762 5.79439 312.261C6.28544 312.76 6.65373 313.36 6.89925 314.059C7.09567 314.758 7.21844 315.382 7.26754 315.931C7.31665 316.48 7.3412 316.755 7.3412 316.755L8.00412 328.738C8.00412 328.738 8.3233 328.663 8.96167 328.513C9.60003 328.363 10.3366 328.214 11.1714 328.064C11.9571 327.864 12.6445 327.739 13.2338 327.689C13.774 327.639 14.486 327.589 15.3699 327.54C16.2047 327.49 16.9658 327.44 17.6533 327.39C18.2916 327.34 18.6108 327.315 18.6108 327.315L18.6108 321.773C18.6108 321.773 18.6354 321.498 18.6845 320.949C18.6845 320.4 18.7827 319.776 18.9791 319.077C19.1264 318.328 19.3719 317.678 19.7157 317.129C20.0594 316.58 20.575 316.28 21.2625 316.231C22.1464 316.181 22.8093 316.53 23.2512 317.279C23.6932 317.978 23.9878 318.727 24.1351 319.526C24.2333 320.275 24.307 320.749 24.3561 320.949C24.3561 321.099 24.3807 321.498 24.4298 322.147C24.4298 322.796 24.4298 323.52 24.4298 324.319C24.4298 325.068 24.4298 325.742 24.4298 326.341C24.4298 326.94 24.4298 327.24 24.4298 327.24C24.4298 327.24 24.798 327.24 25.5346 327.24C26.2221 327.19 27.0323 327.14 27.9653 327.09C28.8983 327.04 29.7086 327.04 30.396 327.09C31.0344 327.09 31.8201 327.115 32.7531 327.165C33.637 327.215 34.4226 327.265 35.1101 327.315C35.7485 327.365 36.0677 327.39 36.0677 327.39L35.6994 317.279C35.6994 317.279 35.6994 316.955 35.6994 316.305C35.6503 315.656 35.6994 314.882 35.8467 313.984C35.994 313.085 36.2886 312.286 36.7306 311.587C37.1725 310.888 37.8354 310.514 38.7193 310.464C39.6032 310.364 40.3152 310.614 40.8554 311.213C41.3956 311.812 41.7884 312.511 42.0339 313.31C42.2795 314.109 42.4513 314.833 42.5495 315.482C42.5986 316.081 42.6232 316.38 42.6232 316.38L43.4334 332.557C43.4334 332.557 43.4334 332.957 43.4334 333.756C43.4825 334.505 43.4334 335.378 43.2861 336.377C43.0897 337.376 42.7214 338.249 42.1812 338.998C41.592 339.747 40.7081 340.097 39.5296 340.047C37.9582 339.947 35.503 339.847 32.1638 339.747C28.7756 339.647 24.8226 339.697 20.3049 339.897C15.7873 340.097 11.0486 340.621 6.08902 341.47Z" fill="#E8E6E2"/>
<path d="M43.4334 280.072C43.4334 281.919 43.1879 283.317 42.6968 284.266C42.2058 285.165 41.6411 285.764 41.0027 286.064C40.3644 286.363 39.7996 286.513 39.3086 286.513C38.8175 286.513 38.572 286.513 38.572 286.513L6.60462 287.412C6.60462 287.412 6.3591 287.437 5.86804 287.487C5.37699 287.536 4.81228 287.437 4.17392 287.187C3.48645 286.937 2.89719 286.413 2.40614 285.614C1.86598 284.815 1.5959 283.567 1.5959 281.87C1.5468 279.623 1.86598 277.925 2.55345 276.777C3.19182 275.628 3.85474 274.879 4.54221 274.53C5.18057 274.131 5.49975 273.931 5.49975 273.931L20.8942 265.318C20.8942 265.318 20.4523 265.118 19.5684 264.719C18.6354 264.27 17.4814 263.745 16.1064 263.146C14.7315 262.497 13.332 261.848 11.908 261.199C10.4839 260.55 9.25629 259.976 8.22509 259.476C7.14478 258.977 6.45731 258.652 6.16267 258.503C5.67162 258.253 5.0087 257.804 4.17392 257.155C3.29003 256.506 2.4798 255.582 1.74322 254.384C1.00664 253.135 0.613801 251.513 0.564696 249.515C0.515592 248.018 0.687459 246.869 1.0803 246.07C1.42403 245.271 1.84143 244.722 2.33248 244.423C2.82353 244.073 3.26547 243.873 3.65832 243.824C4.05116 243.774 4.24758 243.749 4.24758 243.749C4.24758 243.749 4.88594 243.749 6.16267 243.749C7.3903 243.749 9.03532 243.749 11.0977 243.749C13.1601 243.699 15.419 243.674 17.8742 243.674C20.3295 243.674 22.8093 243.674 25.3136 243.674C27.7689 243.674 30.0277 243.674 32.0901 243.674C34.1526 243.624 35.8221 243.599 37.0989 243.599C38.3756 243.599 39.0385 243.599 39.0876 243.599C39.1367 243.599 39.3823 243.624 39.8242 243.674C40.2661 243.674 40.7817 243.848 41.371 244.198C41.9112 244.548 42.4022 245.172 42.8442 246.07C43.237 246.919 43.4334 248.192 43.4334 249.89C43.4334 251.588 43.2616 252.886 42.9178 253.784C42.525 254.633 42.1076 255.232 41.6656 255.582C41.1746 255.931 40.7572 256.131 40.4135 256.181C40.0697 256.231 39.8979 256.256 39.8979 256.256C39.8979 256.256 39.4805 256.256 38.6457 256.256C37.7618 256.256 36.6815 256.256 35.4047 256.256C34.0789 256.206 32.7776 256.181 31.5009 256.181C30.175 256.131 29.0702 256.106 28.1863 256.106C27.3024 256.106 26.8605 256.106 26.8605 256.106L16.3274 255.507L24.5034 259.401C24.5034 259.401 24.7735 259.551 25.3136 259.851C25.8538 260.1 26.394 260.6 26.9341 261.349C27.4743 262.098 27.7689 263.221 27.818 264.719C27.8671 266.167 27.6707 267.315 27.2287 268.164C26.7377 268.963 26.2712 269.537 25.8293 269.887C25.3382 270.186 25.0927 270.336 25.0927 270.336L16.3274 275.204C16.3274 275.204 16.9167 275.179 18.0952 275.129C19.2246 275.029 20.7223 274.929 22.5883 274.83C24.4052 274.73 26.3449 274.63 28.4073 274.53C30.4206 274.43 32.3357 274.355 34.1526 274.305C35.9203 274.205 37.3444 274.131 38.4247 274.081C39.7505 274.031 40.7817 274.305 41.5183 274.904C42.2058 275.504 42.6968 276.203 42.9915 277.001C43.237 277.8 43.3843 278.524 43.4334 279.173C43.4334 279.773 43.4334 280.072 43.4334 280.072Z" fill="#E8E6E2"/>
<path d="M6.08902 240.173C6.08902 240.173 5.89259 240.223 5.49975 240.323C5.05781 240.423 4.54221 240.398 3.95295 240.248C3.36369 240.048 2.82353 239.599 2.33248 238.9C1.84143 238.151 1.52225 236.978 1.37493 235.38C1.22762 233.782 1.10485 231.985 1.00664 229.988C0.908433 227.94 0.810221 225.993 0.712009 224.146C0.6138 222.248 0.540145 220.701 0.49104 219.502C0.441933 218.304 0.417379 217.705 0.417379 217.705C0.417379 217.705 0.441933 217.38 0.49104 216.731C0.49104 216.032 0.589248 215.233 0.785666 214.335C0.932982 213.386 1.25216 212.537 1.74321 211.788C2.18516 211.039 2.84808 210.59 3.73197 210.44C4.61586 210.29 5.30333 210.465 5.79438 210.965C6.28543 211.464 6.65372 212.063 6.89925 212.762C7.09567 213.461 7.21843 214.085 7.26754 214.634C7.31664 215.184 7.34119 215.458 7.34119 215.458L8.00411 227.441C8.00411 227.441 8.32329 227.366 8.96166 227.216C9.60003 227.067 10.3366 226.917 11.1714 226.767C11.9571 226.567 12.6445 226.443 13.2338 226.393C13.774 226.343 14.486 226.293 15.3699 226.243C16.2047 226.193 16.9658 226.143 17.6533 226.093C18.2916 226.043 18.6108 226.018 18.6108 226.018L18.6108 220.476C18.6108 220.476 18.6354 220.201 18.6845 219.652C18.6845 219.103 18.7827 218.479 18.9791 217.78C19.1264 217.031 19.3719 216.382 19.7157 215.833C20.0594 215.283 20.575 214.984 21.2625 214.934C22.1464 214.884 22.8093 215.233 23.2512 215.982C23.6932 216.681 23.9878 217.43 24.1351 218.229C24.2333 218.978 24.307 219.452 24.3561 219.652C24.3561 219.802 24.3807 220.201 24.4298 220.85C24.4298 221.5 24.4298 222.224 24.4298 223.022C24.4298 223.771 24.4298 224.445 24.4298 225.045C24.4298 225.644 24.4298 225.943 24.4298 225.943C24.4298 225.943 24.798 225.943 25.5346 225.943C26.2221 225.893 27.0323 225.843 27.9653 225.793C28.8983 225.744 29.7086 225.744 30.396 225.793C31.0344 225.793 31.8201 225.818 32.7531 225.868C33.637 225.918 34.4226 225.968 35.1101 226.018C35.7485 226.068 36.0677 226.093 36.0677 226.093L35.6994 215.982C35.6994 215.982 35.6994 215.658 35.6994 215.009C35.6503 214.36 35.6994 213.586 35.8467 212.687C35.994 211.788 36.2886 210.989 36.7306 210.29C37.1725 209.591 37.8354 209.217 38.7193 209.167C39.6032 209.067 40.3152 209.317 40.8554 209.916C41.3956 210.515 41.7884 211.214 42.0339 212.013C42.2794 212.812 42.4513 213.536 42.5495 214.185C42.5986 214.784 42.6232 215.084 42.6232 215.084L43.4334 231.261C43.4334 231.261 43.4334 231.66 43.4334 232.459C43.4825 233.208 43.4334 234.082 43.2861 235.08C43.0897 236.079 42.7214 236.953 42.1812 237.702C41.592 238.45 40.7081 238.8 39.5296 238.75C37.9582 238.65 35.5029 238.55 32.1638 238.45C28.7756 238.351 24.8226 238.401 20.3049 238.6C15.7873 238.8 11.0486 239.324 6.08902 240.173Z" fill="#E8E6E2"/>
<path d="M43.4334 198.23C43.4334 200.078 43.1879 201.476 42.6968 202.424C42.2058 203.323 41.6411 203.922 41.0027 204.222C40.3644 204.521 39.7996 204.671 39.3086 204.671C38.8175 204.671 38.572 204.671 38.572 204.671L6.60462 205.57C6.60462 205.57 6.35909 205.595 5.86804 205.645C5.37699 205.695 4.81228 205.595 4.17391 205.345C3.48644 205.095 2.89718 204.571 2.40613 203.772C1.86598 202.974 1.5959 201.725 1.5959 200.028C1.5468 197.781 1.86598 196.083 2.55345 194.935C3.19181 193.787 3.85473 193.038 4.54221 192.688C5.18057 192.289 5.49975 192.089 5.49975 192.089L20.8942 183.476C20.8942 183.476 20.4522 183.276 19.5684 182.877C18.6354 182.428 17.4814 181.903 16.1064 181.304C14.7315 180.655 13.332 180.006 11.908 179.357C10.4839 178.708 9.25629 178.134 8.22509 177.634C7.14477 177.135 6.4573 176.811 6.16267 176.661C5.67162 176.411 5.0087 175.962 4.17391 175.313C3.29002 174.664 2.47979 173.74 1.74321 172.542C1.00664 171.293 0.613797 169.671 0.564693 167.674C0.515588 166.176 0.687455 165.027 1.08029 164.228C1.42403 163.43 1.84143 162.88 2.33248 162.581C2.82353 162.231 3.26547 162.032 3.65831 161.982C4.05115 161.932 4.24757 161.907 4.24757 161.907C4.24757 161.907 4.88594 161.907 6.16267 161.907C7.3903 161.907 9.03532 161.907 11.0977 161.907C13.1601 161.857 15.419 161.832 17.8742 161.832C20.3295 161.832 22.8093 161.832 25.3136 161.832C27.7689 161.832 30.0277 161.832 32.0901 161.832C34.1526 161.782 35.8221 161.757 37.0989 161.757C38.3756 161.757 39.0385 161.757 39.0876 161.757C39.1367 161.757 39.3822 161.782 39.8242 161.832C40.2661 161.832 40.7817 162.007 41.371 162.356C41.9112 162.706 42.4022 163.33 42.8442 164.228C43.237 165.077 43.4334 166.35 43.4334 168.048C43.4334 169.746 43.2615 171.044 42.9178 171.943C42.525 172.791 42.1076 173.39 41.6656 173.74C41.1746 174.089 40.7572 174.289 40.4135 174.339C40.0697 174.389 39.8978 174.414 39.8978 174.414C39.8978 174.414 39.4805 174.414 38.6457 174.414C37.7618 174.414 36.6815 174.414 35.4047 174.414C34.0789 174.364 32.7776 174.339 31.5009 174.339C30.175 174.289 29.0702 174.264 28.1863 174.264C27.3024 174.264 26.8605 174.264 26.8605 174.264L16.3274 173.665L24.5034 177.56C24.5034 177.56 24.7735 177.709 25.3136 178.009C25.8538 178.259 26.394 178.758 26.9341 179.507C27.4743 180.256 27.7689 181.379 27.818 182.877C27.8671 184.325 27.6707 185.473 27.2287 186.322C26.7377 187.121 26.2712 187.695 25.8292 188.045C25.3382 188.344 25.0927 188.494 25.0927 188.494L16.3274 193.362C16.3274 193.362 16.9167 193.337 18.0952 193.287C19.2246 193.187 20.7223 193.088 22.5883 192.988C24.4052 192.888 26.3449 192.788 28.4073 192.688C30.4206 192.588 32.3357 192.513 34.1526 192.463C35.9203 192.364 37.3444 192.289 38.4247 192.239C39.7505 192.189 40.7817 192.463 41.5183 193.063C42.2058 193.662 42.6968 194.361 42.9915 195.16C43.237 195.958 43.3843 196.682 43.4334 197.332C43.4334 197.931 43.4334 198.23 43.4334 198.23Z" fill="#E8E6E2"/>
<path d="M21.9991 158.106C18.0707 158.106 14.486 157.408 11.245 156.009C7.955 154.611 5.35244 152.714 3.43734 150.318C1.47314 147.921 0.491037 145.275 0.491037 142.379C0.491037 140.232 1.05574 138.185 2.18516 136.238C3.26547 134.29 4.81228 132.568 6.82559 131.07C8.78979 129.572 11.0732 128.399 13.6757 127.55C16.2783 126.701 19.0528 126.277 21.9991 126.277C24.9454 126.277 27.7198 126.701 30.3224 127.55C32.9249 128.399 35.2329 129.572 37.2462 131.07C39.2104 132.568 40.7572 134.29 41.8866 136.238C42.9669 138.185 43.5071 140.232 43.5071 142.379C43.5071 145.275 42.5495 147.921 40.6344 150.318C38.6702 152.714 36.0677 154.611 32.8267 156.009C29.5858 157.407 25.9766 158.106 21.9991 158.106ZM21.7044 146.648C24.5525 146.648 27.1796 146.448 29.5858 146.049C31.9428 145.649 33.8334 145.1 35.2574 144.401C36.6324 143.702 37.3198 142.928 37.3198 142.079C37.3198 141.23 36.6324 140.457 35.2574 139.758C33.8334 139.059 31.9428 138.509 29.5858 138.11C27.1796 137.71 24.5525 137.511 21.7044 137.511C18.8072 137.511 16.1801 137.71 13.8231 138.11C11.466 138.509 9.57547 139.059 8.15142 139.758C6.72738 140.457 6.01535 141.23 6.01535 142.079C6.01535 142.928 6.72738 143.702 8.15142 144.401C9.57547 145.1 11.466 145.649 13.8231 146.049C16.1801 146.448 18.8072 146.648 21.7044 146.648Z" fill="#E8E6E2"/>
<path d="M39.4559 118.966L7.34119 122.411C7.34119 122.411 7.19387 122.486 6.89924 122.636C6.60461 122.736 6.21177 122.761 5.72072 122.711C5.22967 122.661 4.71407 122.386 4.17391 121.887C3.63376 121.338 3.14271 120.414 2.70076 119.116C2.06239 117.369 1.54679 115.322 1.15395 112.975C0.712007 110.578 0.589243 108.057 0.785661 105.411C0.982081 102.714 1.76776 100.068 3.1427 97.4718C3.92839 95.924 5.0578 94.7756 6.53095 94.0267C8.00411 93.2778 9.57547 92.8284 11.245 92.6786C12.9146 92.5288 14.5105 92.5288 16.0328 92.6786C17.555 92.7785 18.8072 92.9533 19.7893 93.2029C20.7714 93.4026 21.2625 93.5025 21.2625 93.5025C21.2625 93.5025 21.6308 93.6772 22.3673 94.0267C23.1039 94.3762 23.9387 95.0503 24.8717 96.0489C25.7556 96.9975 26.4676 98.3955 27.0078 100.243L38.2774 89.608C38.2774 89.608 38.4738 89.4332 38.8666 89.0837C39.2595 88.7342 39.7505 88.4596 40.3398 88.2599C40.8799 88.0103 41.4447 88.0602 42.0339 88.4097C42.5741 88.7093 43.0406 89.5331 43.4334 90.8812C43.8263 92.2792 43.9245 93.5274 43.728 94.6259C43.5316 95.6744 43.2124 96.5482 42.7705 97.2472C42.3285 97.8962 41.9112 98.3955 41.5183 98.7451C41.1255 99.0945 40.9291 99.2693 40.9291 99.2693L28.9229 109.155L39.3086 106.684C39.3086 106.684 39.5296 106.634 39.9715 106.534C40.3643 106.434 40.8308 106.484 41.371 106.684C41.9112 106.883 42.4022 107.383 42.8442 108.182C43.237 108.981 43.4334 110.254 43.4334 112.001C43.4334 113.749 43.237 115.122 42.8442 116.12C42.4513 117.069 41.9848 117.743 41.4447 118.142C40.9045 118.542 40.438 118.792 40.0452 118.891C39.6523 118.941 39.4559 118.966 39.4559 118.966ZM7.26753 111.851L22.0727 110.054C22.0727 110.054 22.0973 109.779 22.1464 109.23C22.1955 108.631 22.1464 107.932 21.9991 107.133C21.8517 106.284 21.508 105.485 20.9678 104.737C20.3786 103.938 19.4947 103.289 18.3162 102.789C17.0885 102.29 15.419 102.115 13.3075 102.265C11.2941 102.415 9.82099 102.814 8.888 103.463C7.9059 104.112 7.29208 104.911 7.04656 105.86C6.75193 106.809 6.67827 107.807 6.82559 108.856C6.9238 109.904 7.07111 110.903 7.26753 111.851Z" fill="#E8E6E2"/>
<path d="M39.6769 83.0905C38.0073 83.2403 35.9203 83.3401 33.416 83.3901C30.8625 83.44 28.1372 83.465 25.24 83.465C22.3428 83.465 19.5438 83.44 16.843 83.3901C14.0931 83.2902 11.6624 83.1904 9.55092 83.0905C7.4394 82.9906 5.91714 82.8907 4.98415 82.7909C3.80562 82.6411 2.92173 82.2167 2.33247 81.5177C1.69411 80.8187 1.25216 80.0448 1.00664 79.196C0.76111 78.2973 0.638346 77.5483 0.638346 76.9492C0.589241 76.3001 0.564689 75.9756 0.564689 75.9756C0.564689 75.9756 0.613794 75.676 0.712003 75.0768C0.761107 74.4278 0.883869 73.7288 1.08029 72.9798C1.27671 72.2309 1.62045 71.7066 2.1115 71.4071C3.0936 70.758 4.05115 70.4584 4.98414 70.5083C5.86804 70.5083 7.022 70.5583 8.44605 70.6581C12.1289 70.9577 15.7382 71.1324 19.2737 71.1824C22.8093 71.2323 26.0257 71.2323 28.9229 71.1824C31.8201 71.1324 34.128 71.0825 35.8467 71.0326C37.5654 70.9327 38.4247 70.8828 38.4247 70.8828C38.4247 70.8828 38.6948 70.9078 39.2349 70.9577C39.726 70.9577 40.2907 71.1075 40.9291 71.4071C41.5674 71.7066 42.1567 72.2808 42.6968 73.1296C43.1879 73.9784 43.4334 75.2267 43.4334 76.8743C43.4334 78.522 43.2615 79.7952 42.9178 80.6939C42.525 81.5427 42.083 82.1418 41.592 82.4913C41.0518 82.7909 40.6099 82.9657 40.2661 83.0156C39.8733 83.0656 39.6769 83.0905 39.6769 83.0905Z" fill="#E8E6E2"/>
<path d="M6.08901 64.8603C6.08901 64.8603 5.89259 64.9102 5.49975 65.0101C5.0578 65.1099 4.5422 65.085 3.95294 64.9352C3.36368 64.7355 2.82352 64.2861 2.33247 63.5871C1.84142 62.8382 1.52224 61.6648 1.37492 60.0671C1.22761 58.4694 1.10485 56.6719 1.00663 54.6747C0.908425 52.6277 0.810213 50.6804 0.712001 48.833C0.613792 46.9357 0.540137 45.3879 0.491033 44.1896C0.441925 42.9913 0.417371 42.3922 0.417371 42.3922C0.417371 42.3922 0.441925 42.0677 0.491033 41.4186C0.491033 40.7196 0.58924 39.9207 0.785658 39.022C0.932974 38.0733 1.25216 37.2245 1.74321 36.4756C2.18515 35.7267 2.84807 35.2773 3.73196 35.1275C4.61586 34.9777 5.30333 35.1525 5.79438 35.6518C6.28543 36.1511 6.65371 36.7502 6.89924 37.4492C7.09566 38.1482 7.21842 38.7723 7.26753 39.3216C7.31664 39.8708 7.34119 40.1454 7.34119 40.1454L8.0041 52.1284C8.0041 52.1284 8.32329 52.0535 8.96165 51.9037C9.60002 51.7539 10.3366 51.6041 11.1714 51.4543C11.9571 51.2546 12.6445 51.1298 13.2338 51.0798C13.7739 51.0299 14.486 50.98 15.3699 50.9301C16.2046 50.8801 16.9658 50.8302 17.6533 50.7803C18.2916 50.7303 18.6108 50.7054 18.6108 50.7054L18.6108 45.1632C18.6108 45.1632 18.6354 44.8886 18.6845 44.3394C18.6845 43.7902 18.7827 43.1661 18.9791 42.4671C19.1264 41.7181 19.3719 41.0691 19.7157 40.5198C20.0594 39.9706 20.575 39.6711 21.2625 39.6211C22.1464 39.5712 22.8093 39.9207 23.2512 40.6696C23.6932 41.3686 23.9878 42.1176 24.1351 42.9164C24.2333 43.6654 24.307 44.1397 24.3561 44.3394C24.3561 44.4892 24.3806 44.8887 24.4297 45.5377C24.4297 46.1868 24.4297 46.9108 24.4297 47.7097C24.4297 48.4586 24.4297 49.1326 24.4297 49.7318C24.4297 50.3309 24.4297 50.6305 24.4297 50.6305C24.4297 50.6305 24.798 50.6305 25.5346 50.6305C26.2221 50.5806 27.0323 50.5306 27.9653 50.4807C28.8983 50.4308 29.7085 50.4308 30.396 50.4807C31.0344 50.4807 31.8201 50.5057 32.7531 50.5556C33.6369 50.6055 34.4226 50.6555 35.1101 50.7054C35.7485 50.7553 36.0676 50.7803 36.0676 50.7803L35.6994 40.6696C35.6994 40.6696 35.6994 40.3451 35.6994 39.696C35.6503 39.0469 35.6994 38.273 35.8467 37.3743C35.994 36.4756 36.2886 35.6767 36.7306 34.9777C37.1725 34.2787 37.8354 33.9042 38.7193 33.8543C39.6032 33.7545 40.3152 34.0041 40.8554 34.6032C41.3956 35.2024 41.7884 35.9014 42.0339 36.7003C42.2794 37.4991 42.4513 38.2231 42.5495 38.8722C42.5986 39.4713 42.6232 39.7709 42.6232 39.7709L43.4334 55.948C43.4334 55.948 43.4334 56.3474 43.4334 57.1462C43.4825 57.8952 43.4334 58.7689 43.2861 59.7675C43.0897 60.7661 42.7214 61.6399 42.1812 62.3888C41.592 63.1378 40.7081 63.4873 39.5296 63.4373C37.9582 63.3375 35.5029 63.2376 32.1638 63.1377C28.7755 63.0379 24.8226 63.0878 20.3049 63.2876C15.7873 63.4873 11.0486 64.0115 6.08901 64.8603Z" fill="#E8E6E2"/>
<path d="M14.044 6.44086C14.044 8.13846 13.8476 9.43664 13.4548 10.3354C13.0128 11.2341 12.5218 11.8831 11.9816 12.2826C11.4415 12.6321 10.9504 12.8318 10.5085 12.8817C10.0174 12.9316 9.72278 12.9566 9.62457 12.9566C9.37905 12.9566 8.9862 13.0565 8.44605 13.2562C7.85679 13.406 7.56216 13.9053 7.56216 14.7541C7.56216 16.1521 7.97955 17.4003 8.81434 18.4987C9.64913 19.5473 10.8768 20.1215 12.4972 20.2213C14.1177 20.3212 15.5172 19.8968 16.6957 18.9481C17.8742 17.9995 18.488 16.1271 18.5371 13.3311C18.5371 11.9331 18.7336 10.4602 19.1264 8.91235C19.5192 7.36456 20.1576 5.91659 21.0415 4.56851C21.8763 3.1705 23.0303 2.07208 24.5034 1.27322C25.9275 0.424407 27.7198 -1.21167e-06 29.8804 -1.30612e-06C34.2017 0.0499253 37.5408 1.22326 39.8978 3.52002C42.2549 5.81674 43.4334 9.63635 43.4334 14.9788C43.4334 18.5237 43.016 21.3697 42.1812 23.5167C41.2973 25.6636 40.2661 27.2364 39.0876 28.235C37.9091 29.1836 36.8533 29.6829 35.9203 29.7328C34.9873 29.7827 34.0789 29.7328 33.195 29.583C32.3111 29.3833 31.55 28.859 30.9116 28.0103C30.2733 27.1115 29.8804 25.6886 29.7331 23.7413C29.5858 21.7442 29.7576 20.3212 30.2487 19.4723C30.6906 18.6236 31.2062 18.0993 31.7955 17.8996C32.3848 17.65 32.7531 17.5251 32.9004 17.5251C33.0477 17.5251 33.416 17.4752 34.0052 17.3753C34.5454 17.2256 35.0855 16.9759 35.6257 16.6264C36.1168 16.227 36.3623 15.6778 36.3623 14.9788C36.3623 13.9303 35.9449 13.0315 35.1101 12.2826C34.2753 11.5337 32.9249 11.0593 31.0589 10.8596C27.3761 10.5101 25.5346 12.3824 25.5346 16.4766C25.5346 17.4752 25.3873 18.7733 25.0927 20.3711C24.7489 21.9189 24.1597 23.4667 23.3249 25.0145C22.441 26.5623 21.2134 27.8604 19.642 28.909C18.0706 29.9575 16.0082 30.4568 13.4548 30.4069C10.9013 30.3569 8.81434 29.8826 7.19387 28.9839C5.5243 28.0851 4.24757 26.9118 3.36368 25.4639C2.43068 23.966 1.76776 22.3433 1.37492 20.5958C0.982078 18.7983 0.761104 17.0258 0.712 15.2783C0.662895 12.9317 0.932976 10.6849 1.52224 8.5379C2.1115 6.34103 3.01994 4.51862 4.24757 3.07065C5.42609 1.57278 6.9729 0.723968 8.88799 0.524261C10.312 0.374481 11.3924 0.599182 12.1289 1.19833C12.8164 1.74753 13.3075 2.44653 13.6021 3.29532C13.8476 4.09421 13.9949 4.81815 14.044 5.46722C14.044 6.1163 14.044 6.44086 14.044 6.44086Z" fill="#E8E6E2"/>
</svg>
