<svg width="32" height="32" viewBox="0 0 32 32" fill="none" xmlns="http://www.w3.org/2000/svg">
<path fill-rule="evenodd" clip-rule="evenodd" d="M32 16C32 24.8366 24.8366 32 16 32C12.8514 32 9.91529 31.0906 7.43993 29.52L0 32L2.47998 24.5601C0.90945 22.0847 0 19.1486 0 16C0 7.16343 7.16343 0 16 0C24.8366 0 32 7.16343 32 16ZM21.3902 25.1109C13.6856 25.6781 6.52386 18.6122 7.52193 10.2379C7.834 7.61993 10.8605 6.15014 12.4014 7.1975C12.6306 7.35329 13.2679 9.44022 13.2212 10.8892C13.2109 11.2071 13.0194 11.4819 12.7511 11.6527L11.8315 12.2384C11.4073 12.5086 11.2063 13.0258 11.3599 13.5048C12.6026 17.3794 14.7009 19.9126 18.5296 21.1044C19.0051 21.2524 19.5126 21.0405 19.7731 20.6159L20.1653 19.9764C20.4339 19.5386 20.9626 19.3307 21.4491 19.4956C22.8878 19.9833 24.316 20.652 24.4721 21.0674C24.9858 22.6376 23.4395 24.9601 21.3902 25.1109Z" fill="#5D5048"/>
</svg>
