<svg width="33" height="32" viewBox="0 0 33 32" fill="none" xmlns="http://www.w3.org/2000/svg">
<path d="M23.5333 29.6667C18.0895 29.6603 12.8705 27.4949 9.02109 23.6456C5.17172 19.7963 3.00635 14.5772 3 9.13334C3 7.50668 3.64619 5.94664 4.79641 4.79642C5.94664 3.64619 7.50667 3 9.13333 3C9.47563 2.9996 9.81733 3.02859 10.1547 3.08667C10.4834 3.14036 10.8068 3.22244 11.1213 3.332C11.3352 3.40526 11.5268 3.53206 11.6779 3.70034C11.8289 3.86862 11.9343 4.07278 11.984 4.29334L13.8093 12.244C13.8588 12.4596 13.8539 12.6841 13.7951 12.8973C13.7361 13.1105 13.6251 13.3057 13.472 13.4653C13.292 13.6547 13.2893 13.6587 11.632 14.524C12.9522 17.4031 15.2607 19.7135 18.1387 21.036C19.008 19.3787 19.0107 19.3747 19.2053 19.1933C19.4548 18.9549 19.7869 18.8225 20.132 18.824C20.2311 18.824 20.3299 18.8347 20.4267 18.856L28.3773 20.6813C28.5977 20.7317 28.8017 20.8373 28.9701 20.9883C29.1387 21.1391 29.2659 21.3304 29.34 21.544C29.4504 21.8605 29.5325 22.1863 29.5853 22.5173C29.6409 22.8531 29.6681 23.1929 29.6667 23.5333C29.6649 25.1595 29.0181 26.7185 27.8683 27.8683C26.7184 29.0181 25.1595 29.6649 23.5333 29.6667ZM9.13333 5.66667C8.21392 5.66667 7.33216 6.03191 6.68203 6.68204C6.03191 7.33216 5.66667 8.21392 5.66667 9.13334C5.67231 13.8701 7.55651 18.4113 10.9059 21.7608C14.2553 25.1101 18.7965 26.9944 23.5333 27C24.4528 27 25.3345 26.6348 25.9847 25.9847C26.6348 25.3345 27 24.4528 27 23.5333C26.9997 23.3871 26.9904 23.2411 26.972 23.096L20.8093 21.6813L20.712 21.8693C20.6187 22.0493 20.5213 22.2333 20.4293 22.4027L20.4213 22.4187C19.936 23.352 19.5533 24.0773 18.8213 24.0773C18.6259 24.0728 18.4329 24.0307 18.2533 23.9533C16.0443 23.1633 14.0389 21.8911 12.3829 20.2292C10.727 18.5672 9.46205 16.5572 8.68 14.3453C8.20267 13.3 9.11067 12.8253 10.26 12.224L10.9747 11.8493L9.57067 5.69467C9.42569 5.67536 9.27957 5.666 9.13333 5.66667ZM28.3333 16.3333C27.9797 16.3333 27.6405 16.1928 27.3905 15.9428C27.1405 15.6928 27 15.3536 27 15C26.9972 12.5255 26.0129 10.1532 24.2632 8.40346C22.5135 6.65374 20.1412 5.6695 17.6667 5.66667C17.3131 5.66667 16.9739 5.5262 16.7239 5.27615C16.4739 5.0261 16.3333 4.68696 16.3333 4.33334C16.3333 3.97972 16.4739 3.64058 16.7239 3.39054C16.9739 3.14048 17.3131 3 17.6667 3C20.8481 3.00354 23.8984 4.26895 26.148 6.51863C28.3977 8.7683 29.6632 11.8185 29.6667 15C29.6667 15.3536 29.5261 15.6928 29.2761 15.9428C29.0261 16.1928 28.6869 16.3333 28.3333 16.3333ZM23 16.3333C22.6464 16.3333 22.3072 16.1928 22.0572 15.9428C21.8072 15.6928 21.6667 15.3536 21.6667 15C21.6667 13.9392 21.2452 12.9217 20.4951 12.1716C19.7449 11.4214 18.7275 11 17.6667 11C17.3131 11 16.9739 10.8595 16.7239 10.6095C16.4739 10.3594 16.3333 10.0203 16.3333 9.66667C16.3333 9.31306 16.4739 8.97391 16.7239 8.72387C16.9739 8.47382 17.3131 8.33334 17.6667 8.33334C19.4341 8.33546 21.1285 9.03852 22.3784 10.2883C23.6281 11.5381 24.3312 13.2326 24.3333 15C24.3333 15.3536 24.1928 15.6928 23.9428 15.9428C23.6928 16.1928 23.3536 16.3333 23 16.3333Z" fill="#5D5048"/>
</svg>
