<svg width="34" height="34" viewBox="0 0 34 34" fill="none" xmlns="http://www.w3.org/2000/svg">
<path d="M33.025 31.7625L20.35 23.625C21.6375 21.8 22.4 19.5875 22.4 17.2C22.4 11.025 17.375 6 11.2 6C5.025 6 0 11.025 0 17.2C0 23.375 5.025 28.4 11.2 28.4C14.6375 28.4 17.725 26.8375 19.775 24.3875L32.525 32.5625C32.6 32.6125 32.6875 32.6375 32.775 32.6375C32.925 32.6375 33.075 32.5625 33.175 32.425C33.3125 32.1875 33.25 31.9 33.025 31.7625ZM11.2 27.45C5.55 27.45 0.9375 22.85 0.9375 17.1875C0.9375 11.5375 5.5375 6.925 11.2 6.925C16.8625 6.925 21.4625 11.525 21.4625 17.1875C21.4625 22.85 16.85 27.45 11.2 27.45Z" fill="#4E4E50"/>
</svg>
