<svg width="17" height="20" viewBox="0 0 17 20" fill="none" xmlns="http://www.w3.org/2000/svg">
<path d="M15.997 2.77728C15.9325 2.70553 15.8535 2.64817 15.7654 2.6089C15.6772 2.56962 15.5818 2.54933 15.4853 2.54932H0.69581C0.599241 2.5496 0.503782 2.56992 0.415472 2.60899C0.327162 2.64807 0.247923 2.70504 0.182768 2.77632C0.117613 2.8476 0.0679613 2.93162 0.0369533 3.02308C0.00594538 3.11453 -0.00574369 3.21143 0.002626 3.30763L1.24943 17.6737C1.30214 18.3101 1.593 18.9031 2.06389 19.3343C2.53479 19.7655 3.15105 20.0032 3.78955 19.9999H12.3869C13.0254 20.0032 13.6416 19.7655 14.1125 19.3343C14.5834 18.9031 14.8743 18.3101 14.927 17.6737L16.1738 3.30763C16.1837 3.21175 16.173 3.11486 16.1425 3.02342C16.112 2.93198 16.0624 2.84807 15.997 2.77728ZM13.536 17.5528C13.5126 17.8411 13.3812 18.11 13.1682 18.3058C12.9552 18.5016 12.6762 18.6098 12.3869 18.6088H3.78955C3.50024 18.6098 3.22123 18.5016 3.00821 18.3058C2.7952 18.11 2.66387 17.8411 2.64044 17.5528L1.45878 3.95429H14.7177L13.536 17.5528Z" fill="#B8B5AF"/>
<path d="M5.21834 1.39567H10.9592C11.1443 1.39567 11.3218 1.32215 11.4526 1.19128C11.5835 1.06041 11.657 0.882913 11.657 0.697835C11.657 0.512758 11.5835 0.335261 11.4526 0.204391C11.3218 0.0735217 11.1443 0 10.9592 0H5.21834C5.03327 0 4.85577 0.0735217 4.7249 0.204391C4.59403 0.335261 4.52051 0.512758 4.52051 0.697835C4.52051 0.882913 4.59403 1.06041 4.7249 1.19128C4.85577 1.32215 5.03327 1.39567 5.21834 1.39567Z" fill="#B8B5AF"/>
<path d="M6.22787 16.0504C6.41295 16.0504 6.59044 15.9768 6.72131 15.846C6.85218 15.7151 6.9257 15.5376 6.9257 15.3525V7.84847C6.9257 7.66339 6.85218 7.4859 6.72131 7.35503C6.59044 7.22416 6.41295 7.15063 6.22787 7.15063C6.04279 7.15063 5.86529 7.22416 5.73442 7.35503C5.60356 7.4859 5.53003 7.66339 5.53003 7.84847V15.3339C5.52755 15.4271 5.54376 15.5199 5.57771 15.6067C5.61167 15.6935 5.66268 15.7727 5.72773 15.8394C5.79278 15.9062 5.87055 15.9593 5.95645 15.9955C6.04235 16.0317 6.13464 16.0504 6.22787 16.0504Z" fill="#B8B5AF"/>
<path d="M9.94906 16.0504C10.1341 16.0504 10.3116 15.9768 10.4425 15.846C10.5734 15.7151 10.6469 15.5376 10.6469 15.3525V7.84847C10.6469 7.66339 10.5734 7.4859 10.4425 7.35503C10.3116 7.22416 10.1341 7.15063 9.94906 7.15063C9.76398 7.15063 9.58649 7.22416 9.45562 7.35503C9.32475 7.4859 9.25122 7.66339 9.25122 7.84847V15.3339C9.24874 15.4271 9.26495 15.5199 9.29891 15.6067C9.33286 15.6935 9.38387 15.7727 9.44892 15.8394C9.51397 15.9062 9.59174 15.9593 9.67764 15.9955C9.76354 16.0317 9.85583 16.0504 9.94906 16.0504Z" fill="#B8B5AF"/>
</svg>
