<svg width="50" height="50" viewBox="0 0 50 50" fill="none" xmlns="http://www.w3.org/2000/svg">
<path fill-rule="evenodd" clip-rule="evenodd" d="M50 25C50 38.8071 38.8071 50 25 50C20.0804 50 15.4926 48.579 11.6249 46.125L0 50L3.87497 38.3751C1.42102 34.5074 0 29.9196 0 25C0 11.1929 11.1929 0 25 0C38.8071 0 50 11.1929 50 25ZM33.4222 39.2358C21.3838 40.1221 10.1935 29.0816 11.753 15.9968C12.2406 11.9061 16.9695 9.6096 19.3772 11.2461C19.7353 11.4895 20.7311 14.7503 20.6581 17.0144C20.6421 17.5112 20.3427 17.9404 19.9235 18.2074L18.4867 19.1224C17.8239 19.5446 17.5098 20.3528 17.7499 21.1012C19.6916 27.1552 22.9701 31.1135 28.9525 32.9756C29.6955 33.2068 30.4884 32.8758 30.8954 32.2124L31.5083 31.2132C31.9279 30.529 32.754 30.2042 33.5142 30.4619C35.7622 31.2239 37.9938 32.2688 38.2377 32.9177C39.0403 35.3712 36.6242 39.0001 33.4222 39.2358Z" fill="#5D5048"/>
</svg>
